<svg width="95" height="39" viewBox="0 0 95 39" fill="none" xmlns="http://www.w3.org/2000/svg">
<g clip-path="url(#clip0_4_60)">
<path d="M10.7595 3.73904L21.2053 28.4101H15.7961L10.7595 15.0354L5.72532 28.4101H0.313599L10.7595 3.73904Z" fill="white"/>
<path d="M30.097 13.026H26.7375V8.90753H30.097C30.6333 8.90753 31.1476 9.12449 31.5269 9.51067C31.9061 9.89684 32.1192 10.4206 32.1192 10.9668C32.1192 11.5129 31.9061 12.0367 31.5269 12.4228C31.1476 12.809 30.6333 13.026 30.097 13.026ZM35.7207 15.1044C36.6728 14.3379 37.8307 12.6095 37.8307 10.7394C37.8323 9.82001 37.6557 8.90937 37.3108 8.05973C36.9659 7.21009 36.4596 6.43819 35.821 5.78834C35.1823 5.13849 34.424 4.62349 33.5893 4.27291C32.7547 3.92233 31.8603 3.74307 30.9575 3.74543H21.6344L27.5303 17.6758H30.5824C31.2941 17.6914 31.9715 17.9902 32.4694 18.5083C32.9673 19.0263 33.2462 19.7223 33.2462 20.4472C33.2462 21.1721 32.9673 21.8681 32.4694 22.3862C31.9715 22.9042 31.2941 23.203 30.5824 23.2186H29.8774L31.8846 27.9617C33.6884 27.7591 35.3563 26.8887 36.5712 25.5158C37.7861 24.143 38.4633 22.3635 38.4742 20.5156C38.4742 18.0565 37.1809 16.0803 35.7144 15.1107" fill="white"/>
<path d="M51.3223 15.0545H47.5665V8.88709H51.3223C53.1702 8.88709 54.6466 10.2603 54.6466 11.9836C54.6466 13.7068 53.1689 15.0494 51.3211 15.0494L51.3223 15.0545ZM57.3023 19.2241C58.5985 18.0063 59.5036 16.4185 59.8992 14.6684C60.2948 12.9183 60.1626 11.0874 59.5198 9.41506C58.8769 7.74274 57.7535 6.30691 56.2963 5.29535C54.8391 4.28379 53.116 3.7436 51.3524 3.74543H41.298L49.4407 21.5963H51.4478L55.1384 28.0447H62.3628L57.3023 19.2241Z" fill="white"/>
<path d="M85.6317 2.18696C85.6035 2.18721 85.5753 2.18421 85.5477 2.17802L79.5552 0.807337L75.6663 2.06305C75.5694 2.09371 75.4644 2.08389 75.3745 2.03573C75.2847 1.98758 75.2172 1.90505 75.1871 1.80629C75.157 1.70753 75.1667 1.60064 75.214 1.50912C75.2613 1.41761 75.3423 1.34897 75.4393 1.31831L79.52 0L85.712 1.41795C85.8118 1.42913 85.9032 1.48023 85.966 1.56C86.0288 1.63978 86.058 1.7417 86.047 1.84333C86.036 1.94497 85.9858 2.03801 85.9075 2.10197C85.8291 2.16594 85.729 2.19559 85.6292 2.18441" fill="white"/>
<path d="M85.6317 5.15061C85.6064 5.15059 85.5812 5.14802 85.5564 5.14294L79.5551 3.92044L75.6663 5.04075C75.618 5.05467 75.5674 5.05876 75.5175 5.05278C75.4676 5.0468 75.4193 5.03088 75.3755 5.00591C75.3316 4.98094 75.293 4.94741 75.2619 4.90725C75.2307 4.8671 75.2077 4.82108 75.194 4.77185C75.1803 4.72261 75.1763 4.67112 75.1822 4.6203C75.1881 4.56948 75.2037 4.52034 75.2282 4.47568C75.2527 4.43102 75.2857 4.39171 75.3251 4.36001C75.3645 4.3283 75.4097 4.30482 75.4581 4.29089L79.5225 3.11949L85.7032 4.38415C85.803 4.39414 85.8948 4.4441 85.9585 4.52304C86.0221 4.60198 86.0524 4.70342 86.0425 4.80506C86.0327 4.9067 85.9837 5.00021 85.9062 5.06501C85.8286 5.12981 85.729 5.1606 85.6292 5.15061" fill="white"/>
<path d="M85.6317 8.11042C85.6096 8.11232 85.5873 8.11232 85.5652 8.11042L79.5538 7.03865L75.65 8.02227C75.5515 8.04718 75.4473 8.03122 75.3604 7.97792C75.2735 7.92461 75.2109 7.83833 75.1864 7.73804C75.162 7.63776 75.1777 7.53169 75.23 7.44317C75.2824 7.35465 75.3671 7.29093 75.4656 7.26603L79.5262 6.24409L85.6969 7.34396C85.7967 7.35277 85.889 7.40159 85.9535 7.47969C86.0179 7.55779 86.0493 7.65876 86.0406 7.7604C86.032 7.86204 85.984 7.95601 85.9073 8.02166C85.8307 8.0873 85.7315 8.11922 85.6317 8.11042Z" fill="white"/>
<path d="M85.6318 11.0728C85.6126 11.0741 85.5933 11.0741 85.5741 11.0728L79.5527 10.153L75.6388 10.9974C75.539 11.0189 75.4348 10.9992 75.3493 10.9425C75.2638 10.8859 75.2039 10.7969 75.1828 10.6953C75.1617 10.5937 75.181 10.4876 75.2367 10.4006C75.2923 10.3135 75.3796 10.2525 75.4795 10.231L79.5301 9.35719L85.6882 10.2974C85.789 10.3048 85.8828 10.3528 85.9489 10.4306C86.015 10.5085 86.048 10.6099 86.0407 10.7125C86.0334 10.8152 85.9863 10.9107 85.9099 10.978C85.8334 11.0453 85.7338 11.079 85.633 11.0715" fill="white"/>
<path d="M85.6317 14.0351H85.5828L79.5501 13.2687L75.6211 13.9649C75.5717 13.9737 75.5211 13.9725 75.4721 13.9614C75.4231 13.9503 75.3768 13.9294 75.3357 13.9001C75.2947 13.8707 75.2597 13.8334 75.2328 13.7903C75.2059 13.7471 75.1876 13.699 75.1789 13.6487C75.1703 13.5984 75.1715 13.5468 75.1824 13.497C75.1933 13.4471 75.2138 13.3999 75.2426 13.3581C75.2714 13.3163 75.3081 13.2807 75.3504 13.2533C75.3928 13.2259 75.44 13.2072 75.4894 13.1984L79.5275 12.4728L85.6744 13.2559C85.7753 13.2622 85.8697 13.309 85.9368 13.3862C86.0038 13.4633 86.038 13.5644 86.0319 13.6672C86.0257 13.7701 85.9797 13.8662 85.9039 13.9345C85.8282 14.0027 85.7289 14.0376 85.6279 14.0313" fill="white"/>
<path d="M85.6317 16.9975H85.5929L79.5476 16.3818L75.6111 16.9477C75.5113 16.9621 75.41 16.9355 75.3294 16.8738C75.2488 16.8121 75.1956 16.7204 75.1815 16.6188C75.1674 16.5171 75.1934 16.4139 75.254 16.3319C75.3146 16.2498 75.4047 16.1956 75.5045 16.1812L79.5326 15.6026H79.5777L85.6694 16.2234C85.7705 16.2285 85.8655 16.2743 85.9335 16.3507C86.0015 16.4271 86.0369 16.5279 86.0319 16.6309C86.0269 16.7339 85.982 16.8306 85.9069 16.8999C85.8319 16.9691 85.7329 17.0051 85.6317 17.0001" fill="white"/>
<path d="M85.6317 19.9586H85.6029L79.5464 19.4962L75.5961 19.9216C75.4954 19.9316 75.3949 19.9009 75.3163 19.8361C75.2377 19.7714 75.1872 19.6777 75.1758 19.5754C75.1698 19.5244 75.1738 19.4727 75.1877 19.4234C75.2016 19.374 75.2251 19.328 75.2568 19.2881C75.2886 19.2482 75.3278 19.2152 75.3723 19.191C75.4168 19.1668 75.4656 19.152 75.5158 19.1474L79.5301 18.7131L85.6556 19.1819C85.7567 19.1856 85.8523 19.2301 85.9212 19.3056C85.9901 19.3811 86.0268 19.4813 86.0231 19.5843C86.0195 19.6873 85.9758 19.7846 85.9017 19.8548C85.8276 19.925 85.7291 19.9623 85.628 19.9586" fill="white"/>
<path d="M85.6318 22.921H85.6117L79.5439 22.6118L75.5848 22.8954C75.4837 22.9027 75.3838 22.8688 75.3073 22.8011C75.2307 22.7334 75.1836 22.6375 75.1765 22.5345C75.1693 22.4315 75.2027 22.3299 75.2691 22.2519C75.3356 22.1739 75.4297 22.126 75.5309 22.1187L79.5363 21.8313H79.5589L85.6481 22.1405C85.7494 22.143 85.8455 22.1864 85.9154 22.2612C85.9853 22.3359 86.0231 22.4358 86.0206 22.539C86.0181 22.6422 85.9755 22.7401 85.9021 22.8113C85.8287 22.8824 85.7306 22.921 85.6292 22.9184" fill="white"/>
<path d="M85.6318 25.8833H85.623L79.5426 25.7275L75.5723 25.8706C75.5219 25.8731 75.4716 25.8654 75.4242 25.8478C75.3769 25.8301 75.3335 25.803 75.2966 25.768C75.2597 25.7329 75.2302 25.6907 75.2097 25.6438C75.1891 25.5969 75.1781 25.5463 75.1771 25.495C75.1746 25.4437 75.1822 25.3924 75.1995 25.3442C75.2168 25.296 75.2435 25.2518 75.2779 25.2143C75.3123 25.1767 75.3537 25.1466 75.3998 25.1257C75.4458 25.1048 75.4955 25.0936 75.5459 25.0926L79.5363 24.9508H79.5476L85.638 25.1054C85.7395 25.1067 85.8363 25.1491 85.9071 25.2231C85.9779 25.2971 86.0169 25.3968 86.0156 25.5001C86.0143 25.6034 85.9727 25.702 85.9 25.7741C85.8273 25.8462 85.7295 25.886 85.628 25.8846" fill="white"/>
<path d="M85.6317 28.8444H75.5559C75.4546 28.8444 75.3575 28.8034 75.2858 28.7305C75.2142 28.6575 75.174 28.5586 75.174 28.4554C75.174 28.3523 75.2142 28.2533 75.2858 28.1804C75.3575 28.1074 75.4546 28.0665 75.5559 28.0665H85.6317C85.733 28.0665 85.8302 28.1074 85.9018 28.1804C85.9735 28.2533 86.0137 28.3523 86.0137 28.4554C86.0137 28.5586 85.9735 28.6575 85.9018 28.7305C85.8302 28.8034 85.733 28.8444 85.6317 28.8444Z" fill="white"/>
<path d="M94.6174 4.79293C94.5778 4.79283 94.5384 4.78637 94.5008 4.77376L90.7913 3.55509L87.6803 4.67412C87.6329 4.6909 87.5828 4.69801 87.5327 4.69505C87.4826 4.6921 87.4336 4.67913 87.3885 4.65688C87.3434 4.63464 87.303 4.60357 87.2696 4.56543C87.2363 4.52729 87.2106 4.48284 87.1942 4.43461C87.1777 4.38638 87.1707 4.33531 87.1736 4.28434C87.1765 4.23336 87.1893 4.18346 87.2111 4.1375C87.2329 4.09153 87.2635 4.0504 87.3009 4.01644C87.3384 3.98249 87.382 3.95638 87.4294 3.9396L90.7851 2.7337L94.7391 4.03413C94.8379 4.05005 94.9265 4.1053 94.9853 4.18771C95.0441 4.27012 95.0683 4.37294 95.0527 4.47357C95.0371 4.57419 94.9828 4.66437 94.9019 4.72426C94.821 4.78415 94.72 4.80885 94.6212 4.79293" fill="white"/>
<path d="M94.6174 7.1945C94.5814 7.19433 94.5455 7.18918 94.5108 7.17917L90.7913 6.07802L87.6677 7.08847C87.62 7.1039 87.5697 7.1096 87.5197 7.10525C87.4698 7.10089 87.4212 7.08656 87.3767 7.06307C87.2868 7.01564 87.2191 6.93379 87.1885 6.83554C87.1579 6.73729 87.1669 6.63068 87.2135 6.53917C87.26 6.44765 87.3404 6.37873 87.4369 6.34756L90.7813 5.26558L94.724 6.43187C94.8239 6.44627 94.914 6.50045 94.9745 6.58251C95.0351 6.66456 95.0612 6.76775 95.0471 6.86939C95.0329 6.97103 94.9797 7.06279 94.8991 7.12447C94.8186 7.18616 94.7172 7.21273 94.6174 7.19833" fill="white"/>
<path d="M94.6174 9.60373C94.5853 9.60362 94.5533 9.59977 94.5221 9.59224L90.7913 8.60989L87.6552 9.51176C87.6068 9.52568 87.5563 9.52977 87.5064 9.52379C87.4565 9.51782 87.4082 9.50189 87.3644 9.47692C87.3205 9.45195 87.2819 9.41843 87.2508 9.37827C87.2196 9.33811 87.1966 9.2921 87.1829 9.24286C87.1692 9.19362 87.1652 9.14213 87.1711 9.09131C87.1769 9.04049 87.1926 8.99135 87.2171 8.94669C87.2416 8.90203 87.2746 8.86273 87.314 8.83102C87.3534 8.79932 87.3986 8.77583 87.447 8.76191L90.78 7.80383L94.7115 8.83728C94.7609 8.84365 94.8086 8.85987 94.8519 8.88502C94.8952 8.91017 94.9331 8.94375 94.9637 8.98384C94.9942 9.02394 95.0166 9.06976 95.0298 9.1187C95.0429 9.16763 95.0464 9.21872 95.0402 9.26905C95.0339 9.31937 95.018 9.36795 94.9933 9.41201C94.9686 9.45606 94.9356 9.49474 94.8962 9.52581C94.8569 9.55689 94.8119 9.57977 94.7638 9.59314C94.7158 9.60651 94.6656 9.61011 94.6162 9.60373" fill="white"/>
<path d="M94.6186 12.0091C94.5899 12.0089 94.5613 12.0055 94.5333 11.9989L90.79 11.1379L87.6388 11.9299C87.5901 11.9422 87.5394 11.9445 87.4897 11.9368C87.4401 11.9292 87.3924 11.9116 87.3494 11.8851C87.3064 11.8587 87.269 11.8239 87.2392 11.7827C87.2095 11.7415 87.1879 11.6947 87.1759 11.6451C87.1639 11.5954 87.1616 11.5438 87.1691 11.4933C87.1767 11.4427 87.1939 11.3942 87.2199 11.3504C87.2459 11.3066 87.2801 11.2685 87.3205 11.2382C87.361 11.2079 87.4069 11.1859 87.4557 11.1737L90.7775 10.3383L94.6964 11.2401C94.7962 11.2513 94.8876 11.3024 94.9504 11.3822C95.0132 11.462 95.0423 11.5639 95.0313 11.6655C95.0203 11.7671 94.9702 11.8602 94.8918 11.9241C94.8135 11.9881 94.7134 12.0178 94.6136 12.0066" fill="white"/>
<path d="M94.6186 14.4133C94.5938 14.413 94.5691 14.4109 94.5446 14.4069L90.79 13.6672L87.6313 14.3481C87.5315 14.3695 87.4274 14.3496 87.342 14.2928C87.2566 14.236 87.1969 14.147 87.1759 14.0454C87.155 13.9437 87.1745 13.8378 87.2303 13.7508C87.286 13.6638 87.3734 13.603 87.4732 13.5817L90.7825 12.8688L94.6901 13.6353C94.7899 13.645 94.8819 13.6946 94.9458 13.7733C95.0096 13.852 95.0402 13.9533 95.0307 14.0549C95.0212 14.1566 94.9725 14.2502 94.8952 14.3153C94.8179 14.3803 94.7184 14.4114 94.6186 14.4018" fill="white"/>
<path d="M94.6187 16.8199C94.5982 16.8212 94.5777 16.8212 94.5572 16.8199L90.7938 16.2004L87.6238 16.7701C87.5263 16.7828 87.4278 16.7567 87.3486 16.6974C87.2695 16.638 87.2158 16.55 87.1987 16.4514C87.1816 16.3529 87.2024 16.2514 87.2568 16.168C87.3112 16.0847 87.395 16.0258 87.4908 16.0037L90.7888 15.4122L94.6776 16.0509C94.7784 16.0591 94.8719 16.1076 94.9376 16.186C95.0032 16.2643 95.0356 16.366 95.0276 16.4687C95.0196 16.5713 94.9719 16.6665 94.895 16.7334C94.8181 16.8002 94.7182 16.8332 94.6174 16.8251" fill="white"/>
<path d="M94.6187 19.2241H94.5685L90.7888 18.7272L87.6063 19.1845C87.5064 19.1989 87.4051 19.1723 87.3245 19.1106C87.244 19.0489 87.1908 18.9572 87.1766 18.8555C87.1625 18.7539 87.1886 18.6507 87.2491 18.5687C87.3097 18.4866 87.3998 18.4324 87.4996 18.418L90.7838 17.9466L94.6663 18.4576C94.7673 18.4641 94.8616 18.5111 94.9286 18.5883C94.9955 18.6656 95.0296 18.7668 95.0232 18.8696C95.0169 18.9724 94.9707 19.0685 94.8949 19.1366C94.819 19.2048 94.7197 19.2395 94.6187 19.233" fill="white"/>
<path d="M94.6187 21.6295H94.5811L90.7876 21.2552L87.5925 21.6014C87.4919 21.6111 87.3916 21.5803 87.313 21.5156C87.2345 21.4509 87.1839 21.3574 87.1722 21.2552C87.1658 21.2039 87.1696 21.1519 87.1834 21.1021C87.1972 21.0524 87.2208 21.0061 87.2527 20.9658C87.2846 20.9256 87.3241 20.8924 87.3689 20.8681C87.4137 20.8439 87.4629 20.8291 87.5134 20.8247L90.7863 20.4708L94.6563 20.8541C94.7575 20.859 94.8525 20.9046 94.9207 20.9809C94.9888 21.0572 95.0243 21.1579 95.0195 21.2609C95.0147 21.3639 94.9699 21.4608 94.8949 21.5301C94.82 21.5995 94.7211 21.6357 94.6199 21.6308" fill="white"/>
<path d="M94.6187 24.0349H94.5936L90.7876 23.7794L87.5799 24.0106C87.4788 24.0179 87.379 23.984 87.3024 23.9163C87.2258 23.8486 87.1788 23.7527 87.1716 23.6497C87.1645 23.5467 87.1978 23.4451 87.2642 23.3671C87.3307 23.2891 87.4248 23.2412 87.526 23.2339L90.7876 22.9989L94.645 23.2544C94.7463 23.2576 94.8422 23.3017 94.9116 23.3769C94.981 23.4521 95.0183 23.5523 95.0151 23.6555C95.0119 23.7587 94.9687 23.8563 94.8948 23.927C94.8209 23.9977 94.7225 24.0355 94.6212 24.0323" fill="white"/>
<path d="M94.6174 26.4403H94.6061L90.7863 26.3125L87.5661 26.4288C87.4648 26.4325 87.3661 26.3951 87.2919 26.3248C87.2177 26.2545 87.174 26.157 87.1703 26.0539C87.1666 25.9507 87.2034 25.8503 87.2724 25.7747C87.3415 25.6991 87.4372 25.6546 87.5385 25.6508L90.7863 25.5333H90.7988L94.6299 25.6611C94.7314 25.6628 94.828 25.7054 94.8986 25.7797C94.9692 25.854 95.0079 25.9537 95.0063 26.0571C95.0046 26.1604 94.9627 26.2588 94.8898 26.3307C94.8168 26.4026 94.7188 26.442 94.6174 26.4403Z" fill="white"/>
<path d="M94.6174 28.8444H87.5523C87.451 28.8444 87.3538 28.8034 87.2822 28.7305C87.2105 28.6575 87.1703 28.5586 87.1703 28.4554C87.1703 28.3523 87.2105 28.2533 87.2822 28.1804C87.3538 28.1074 87.451 28.0665 87.5523 28.0665H94.6174C94.7187 28.0665 94.8158 28.1074 94.8875 28.1804C94.9591 28.2533 94.9993 28.3523 94.9993 28.4554C94.9993 28.5586 94.9591 28.6575 94.8875 28.7305C94.8158 28.8034 94.7187 28.8444 94.6174 28.8444Z" fill="white"/>
<path d="M73.545 7.70547C73.5094 7.70547 73.4739 7.70031 73.4396 7.69014L69.7754 6.6171L67.0482 7.59817C67.0008 7.61494 66.9507 7.62205 66.9006 7.6191C66.8506 7.61614 66.8016 7.60317 66.7564 7.58093C66.7113 7.55868 66.6709 7.52761 66.6375 7.48947C66.6042 7.45133 66.5786 7.40688 66.5621 7.35865C66.5456 7.31042 66.5386 7.25936 66.5415 7.20838C66.5444 7.1574 66.5572 7.1075 66.579 7.06154C66.6009 7.01557 66.6314 6.97444 66.6688 6.94048C66.7063 6.90653 66.7499 6.88042 66.7973 6.86364L69.7515 5.78932L73.6504 6.93901C73.7502 6.95324 73.8404 7.00726 73.9011 7.08919C73.9618 7.17113 73.988 7.27425 73.974 7.37589C73.9601 7.47753 73.907 7.56936 73.8266 7.63116C73.7461 7.69297 73.6448 7.7197 73.545 7.70547Z" fill="white"/>
<path d="M73.545 9.81323C73.5124 9.81325 73.4799 9.80896 73.4484 9.80046L69.7741 8.83217L67.0369 9.7187C66.9894 9.73422 66.9395 9.74007 66.8898 9.73592C66.8401 9.73176 66.7917 9.71769 66.7474 9.6945C66.7031 9.67131 66.6637 9.63946 66.6315 9.60076C66.5992 9.56206 66.5748 9.51728 66.5596 9.46897C66.5443 9.42065 66.5386 9.36976 66.5427 9.31918C66.5467 9.26861 66.5606 9.21935 66.5833 9.17421C66.6061 9.12908 66.6374 9.08895 66.6754 9.05613C66.7134 9.0233 66.7574 8.99842 66.8048 8.9829L69.7528 8.02994L73.6416 9.05188C73.7414 9.06476 73.8321 9.11748 73.8937 9.19845C73.9554 9.27943 73.9829 9.38202 73.9703 9.48366C73.9576 9.58529 73.9058 9.67766 73.8263 9.74042C73.7468 9.80319 73.6461 9.83122 73.5462 9.81834" fill="white"/>
<path d="M73.545 11.9274C73.5177 11.9281 73.4904 11.9259 73.4635 11.921L69.7766 11.0575L67.0281 11.8482C66.9302 11.877 66.8249 11.865 66.7357 11.8148C66.6464 11.7646 66.5803 11.6803 66.5521 11.5806C66.5238 11.4808 66.5356 11.3737 66.5849 11.2827C66.6342 11.1918 66.7169 11.1246 66.8149 11.0958L69.7528 10.2514L73.6303 11.1545C73.7302 11.1661 73.8214 11.2175 73.884 11.2975C73.9465 11.3775 73.9753 11.4796 73.964 11.5812C73.9527 11.6828 73.9022 11.7757 73.8236 11.8395C73.7451 11.9032 73.6448 11.9325 73.545 11.921" fill="white"/>
<path d="M73.5451 14.0428C73.5198 14.0428 73.4946 14.0402 73.4698 14.0351L69.7717 13.2776L67.0119 13.9713C66.9134 13.996 66.8093 13.9799 66.7225 13.9265C66.6357 13.873 66.5733 13.7867 66.549 13.6864C66.5247 13.5861 66.5405 13.4801 66.593 13.3917C66.6454 13.3033 66.7302 13.2398 66.8287 13.215L69.7554 12.4792L73.6203 13.2725C73.7202 13.2827 73.8119 13.3328 73.8754 13.4119C73.9389 13.4909 73.969 13.5924 73.959 13.6941C73.9491 13.7957 73.8998 13.8891 73.8222 13.9538C73.7446 14.0185 73.6449 14.0491 73.5451 14.039" fill="white"/>
<path d="M73.545 16.157C73.5233 16.1588 73.5014 16.1588 73.4797 16.157L69.7716 15.4978L66.9992 16.0969C66.9498 16.1075 66.8988 16.108 66.8492 16.0985C66.7996 16.0891 66.7523 16.0697 66.71 16.0416C66.6246 15.9848 66.5648 15.8958 66.5439 15.7942C66.5229 15.6925 66.5424 15.5866 66.5982 15.4996C66.654 15.4127 66.7414 15.3518 66.8412 15.3305L69.7565 14.702L73.6102 15.379C73.71 15.3878 73.8023 15.4366 73.8668 15.5147C73.9312 15.5928 73.9626 15.6938 73.9539 15.7954C73.9453 15.8971 73.8973 15.9911 73.8206 16.0567C73.7439 16.1223 73.6448 16.1543 73.545 16.1455" fill="white"/>
<path d="M73.545 18.2711C73.5271 18.2724 73.509 18.2724 73.4911 18.2711L69.7691 17.7282L66.9867 18.2277C66.8892 18.2403 66.7907 18.2143 66.7116 18.1549C66.6324 18.0956 66.5787 18.0075 66.5616 17.909C66.5445 17.8104 66.5653 17.7089 66.6197 17.6256C66.6741 17.5422 66.7579 17.4834 66.8538 17.4612L69.7578 16.9413L73.599 17.5021C73.6998 17.5094 73.7936 17.5571 73.8598 17.6349C73.9261 17.7126 73.9593 17.814 73.9521 17.9166C73.9449 18.0193 73.898 18.1148 73.8217 18.1823C73.7454 18.2497 73.6458 18.2835 73.545 18.2762" fill="white"/>
<path d="M73.545 20.3865H73.5011L69.7679 19.9497L66.9742 20.352C66.8744 20.3664 66.773 20.3399 66.6925 20.2782C66.6119 20.2165 66.5587 20.1247 66.5445 20.0231C66.5304 19.9215 66.5565 19.8183 66.6171 19.7362C66.6776 19.6542 66.7677 19.6 66.8676 19.5856L69.7528 19.1691L73.5889 19.6099C73.686 19.6212 73.7751 19.67 73.838 19.7461C73.9009 19.8222 73.9328 19.92 73.9272 20.0193C73.9216 20.1186 73.8788 20.212 73.8078 20.2803C73.7367 20.3486 73.6427 20.3866 73.545 20.3865Z" fill="white"/>
<path d="M73.5451 22.5007H73.5124L69.7679 22.1724L66.9604 22.4751C66.8598 22.4848 66.7595 22.454 66.6809 22.3893C66.6024 22.3246 66.5518 22.2312 66.5402 22.129C66.5296 22.0263 66.5595 21.9236 66.6232 21.8434C66.687 21.7632 66.7794 21.712 66.8801 21.701L69.7654 21.3906L73.5839 21.7253C73.634 21.7275 73.6832 21.7397 73.7286 21.7612C73.7741 21.7827 73.8149 21.8132 73.8488 21.8508C73.8827 21.8884 73.909 21.9324 73.9262 21.9804C73.9434 22.0283 73.9511 22.0792 73.949 22.1302C73.9468 22.1812 73.9349 22.2313 73.9137 22.2776C73.8926 22.3239 73.8627 22.3654 73.8258 22.4C73.7888 22.4345 73.7456 22.4613 73.6985 22.4788C73.6514 22.4963 73.6014 22.5041 73.5513 22.502" fill="white"/>
<path d="M73.545 24.6161H73.5225L69.7666 24.3964L66.9479 24.5982C66.8978 24.6018 66.8475 24.5954 66.7999 24.5792C66.7522 24.563 66.7082 24.5374 66.6703 24.5039C66.6324 24.4704 66.6013 24.4296 66.5789 24.3839C66.5564 24.3381 66.5431 24.2884 66.5395 24.2374C66.536 24.1864 66.5423 24.1352 66.5582 24.0867C66.5741 24.0382 66.5992 23.9933 66.6322 23.9547C66.6651 23.9161 66.7051 23.8845 66.75 23.8616C66.7949 23.8388 66.8438 23.8252 66.8939 23.8216L69.7616 23.6159H69.7854L73.5664 23.8369C73.6678 23.8398 73.764 23.8836 73.8338 23.9587C73.9035 24.0338 73.9411 24.134 73.9383 24.2374C73.9355 24.3407 73.8925 24.4386 73.8187 24.5097C73.745 24.5807 73.6465 24.619 73.545 24.6161Z" fill="white"/>
<path d="M73.5451 26.7303H73.5338L69.7704 26.6191L66.9391 26.7213C66.8889 26.7231 66.8389 26.7148 66.7919 26.6968C66.7449 26.6789 66.7018 26.6518 66.6651 26.6169C66.591 26.5464 66.5474 26.4489 66.5439 26.3458C66.5404 26.2426 66.5773 26.1422 66.6465 26.0668C66.7157 25.9913 66.8114 25.9469 66.9127 25.9434L69.7679 25.8412L73.5614 25.9523C73.6627 25.9538 73.7592 25.9963 73.8298 26.0703C73.9004 26.1443 73.9392 26.2439 73.9377 26.347C73.9362 26.4502 73.8945 26.5485 73.8218 26.6204C73.7491 26.6923 73.6514 26.7318 73.5501 26.7303" fill="white"/>
<path d="M73.545 28.8444H66.9202C66.8189 28.8444 66.7217 28.8034 66.6501 28.7305C66.5785 28.6575 66.5382 28.5586 66.5382 28.4554C66.5382 28.3523 66.5785 28.2533 66.6501 28.1804C66.7217 28.1074 66.8189 28.0665 66.9202 28.0665H73.545C73.6463 28.0665 73.7434 28.1074 73.8151 28.1804C73.8867 28.2533 73.927 28.3523 73.927 28.4554C73.927 28.5586 73.8867 28.6575 73.8151 28.7305C73.7434 28.8034 73.6463 28.8444 73.545 28.8444Z" fill="white"/>
<path d="M1.45773 36.8079H3.94532L2.70215 33.7561L1.45773 36.8079ZM0.629792 38.8518H0.00256348L2.44123 33.1034H2.99946L5.42182 38.8518H4.78204L4.15481 37.3419H1.24322L0.629792 38.8518Z" fill="white"/>
<path d="M9.11743 37.8644H9.12495L11.0142 33.1072H11.891V38.8544H11.3177V33.8622H11.3014L9.26043 38.8544H8.95811L6.91711 33.8622H6.90206V38.8544H6.32751V33.1072H7.20438L9.11743 37.8644Z" fill="white"/>
<path d="M15.3007 32.6524H14.8302L15.6281 31.4836H16.3531L15.3007 32.6524ZM14.0462 38.3345H17.0669V38.8531H13.4679V33.1047H16.9666V33.6246H14.0412V35.6046H16.7759V36.1156H14.0412L14.0462 38.3345Z" fill="white"/>
<path d="M18.8382 35.6633H19.8355C20.7513 35.6633 21.2782 35.3235 21.2782 34.6414C21.2782 33.8864 20.7124 33.6105 19.8594 33.6105H18.8382V35.6633ZM18.8382 38.8569H18.2675V33.1085H19.9233C21.0386 33.1085 21.8514 33.5224 21.8514 34.6414C21.8514 35.4934 21.2305 36.0287 20.4088 36.1181L22.0597 38.8544H21.3572L19.7954 36.1718H18.8382V38.8569Z" fill="white"/>
<path d="M23.6917 33.1072H23.1184V38.8544H23.6917V33.1072Z" fill="white"/>
<path d="M30.0204 37.9282C29.644 38.5044 28.9202 39 27.9079 39C26.203 39 24.9674 37.7226 24.9674 35.9802C24.9674 34.2377 26.2219 32.9616 27.9079 32.9616C28.737 32.9616 29.5261 33.3103 29.915 33.8698L29.437 34.2275C29.1974 33.8545 28.6317 33.4726 27.9141 33.4726C26.4564 33.4726 25.5708 34.6414 25.5708 35.9802C25.5708 37.3189 26.4652 38.4916 27.9154 38.4916C28.2398 38.5028 28.5618 38.4306 28.8517 38.2817C29.1415 38.1328 29.3898 37.9119 29.5738 37.6395L30.0204 37.9282Z" fill="white"/>
<path d="M31.7804 36.8079H34.268L33.0236 33.7561L31.7804 36.8079ZM30.9512 38.8518H30.324L32.7639 33.1034H33.3209L35.7432 38.8518H35.106L34.4787 37.3419H31.5646L30.9512 38.8518Z" fill="white"/>
<path d="M39.1515 38.3498H40.2203C41.0495 38.3498 41.7746 38.0343 41.7746 37.2308C41.7746 36.4758 41.2402 36.1028 40.3232 36.1028H39.1515V38.3498ZM39.1515 35.6238H40.3081C40.8576 35.6238 41.5036 35.3798 41.5036 34.6171C41.5036 33.8864 40.8902 33.6105 40.1488 33.6105H39.1515V35.6238ZM38.5782 33.1072H40.2605C41.121 33.1072 42.0769 33.424 42.0769 34.5763C42.0773 34.8677 41.9781 35.1502 41.7964 35.3753C41.6147 35.6005 41.3617 35.7542 41.0809 35.8103V35.8269C41.8147 35.9073 42.3567 36.4273 42.3567 37.2627C42.3567 38.2208 41.5513 38.8544 40.2517 38.8544H38.5782V33.1072Z" fill="white"/>
<path d="M44.2999 33.1072H43.7266V38.8544H44.2999V33.1072Z" fill="white"/>
<path d="M46.4525 38.3345H49.4732V38.8544H45.8779V33.1072H49.3766V33.6271H46.4525V35.6071H49.1859V36.1194H46.4525V38.3345Z" fill="white"/>
<path d="M54.6768 38.0023H54.6931V33.1072H55.2664V38.8544H54.5488L51.2646 33.9107H51.2496V38.8544H50.675V33.1072H51.3926L54.6768 38.0023Z" fill="white"/>
<path d="M57.4177 38.3345H60.4384V38.8544H56.8431V33.1072H60.3418V33.6271H57.4177V35.6071H60.1511V36.1194H57.4177V38.3345Z" fill="white"/>
<path d="M64.375 34.0321C64.2436 33.8448 64.0682 33.6939 63.8649 33.5933C63.6615 33.4927 63.4367 33.4454 63.2109 33.4559C62.6526 33.4559 62.0078 33.797 62.0078 34.5354C62.0078 35.2737 62.605 35.4526 63.2347 35.6646C64.0313 35.9367 64.9081 36.1922 64.9081 37.3419C64.9081 38.4916 63.9598 39.0026 63.0678 39.0026C62.3817 39.0026 61.6967 38.719 61.2903 38.1505L61.7845 37.7762C61.9217 37.9979 62.1124 38.18 62.3384 38.3052C62.5644 38.4304 62.8181 38.4946 63.0754 38.4916C63.6574 38.4916 64.3298 38.1186 64.3298 37.3789C64.3298 36.5754 63.6675 36.3736 62.9499 36.1462C62.1973 35.9099 61.4358 35.5778 61.4358 34.5392C61.4358 33.4266 62.408 32.9565 63.2372 32.9565C63.9899 32.9565 64.5607 33.2809 64.8316 33.654L64.375 34.0321Z" fill="white"/>
<path d="M68.8609 35.6633H69.857C70.774 35.6633 71.2996 35.3235 71.2996 34.6414C71.2996 33.8864 70.7338 33.6105 69.8808 33.6105H68.8609V35.6633ZM68.8609 38.8569H68.2864V33.1085H69.951C71.0675 33.1085 71.8804 33.5224 71.8804 34.6414C71.8804 35.4934 71.2532 36.0287 70.4378 36.1181L72.0836 38.8544H71.3824L69.8193 36.1718H68.8634L68.8609 38.8569Z" fill="white"/>
<path d="M73.9288 36.8079H76.4164L75.172 33.7561L73.9288 36.8079ZM73.0996 38.8518H72.4724L74.9123 33.1034H75.4706L77.8929 38.8518H77.2557L76.6284 37.3419H73.7143L73.0996 38.8518Z" fill="white"/>
<path d="M79.372 38.8531H78.7987V33.1047H79.372V38.8531ZM79.2679 32.6524H78.7987L79.5953 31.4836H80.3204L79.2679 32.6524Z" fill="white"/>
<path d="M85.7007 37.9282C85.3244 38.5044 84.6005 39 83.5882 39C81.8821 39 80.6465 37.7226 80.6465 35.9802C80.6465 34.2377 81.9009 32.9616 83.5882 32.9616C84.4174 32.9616 85.2064 33.3103 85.5953 33.8698L85.1174 34.2275C84.8778 33.8545 84.312 33.4726 83.5945 33.4726C82.1355 33.4726 81.2511 34.6414 81.2511 35.9802C81.2511 37.3189 82.1456 38.4916 83.5957 38.4916C83.9206 38.5026 84.2429 38.4301 84.533 38.2807C84.8231 38.1313 85.0715 37.91 85.2554 37.637L85.7007 37.9282Z" fill="white"/>
<path d="M87.3415 38.3345H90.3622V38.8544H86.767V33.1072H90.2669V33.6271H87.3415V35.6071H90.075V36.1194H87.3415V38.3345Z" fill="white"/>
<path d="M94.2988 34.0321C94.1674 33.8448 93.992 33.6939 93.7887 33.5933C93.5854 33.4927 93.3605 33.4454 93.1347 33.4559C92.5765 33.4559 91.9317 33.797 91.9317 34.5354C91.9317 35.2737 92.5288 35.4526 93.1585 35.6646C93.9551 35.9367 94.832 36.1922 94.832 37.3419C94.832 38.4916 93.8836 39.0026 92.9917 39.0026C92.3055 39.0026 91.6206 38.719 91.2141 38.1505L91.7084 37.7762C91.8456 37.9979 92.0363 38.18 92.2622 38.3052C92.4882 38.4304 92.7419 38.4946 92.9992 38.4916C93.5813 38.4916 94.2537 38.1186 94.2537 37.3789C94.2537 36.5754 93.5926 36.3736 92.8738 36.1462C92.1211 35.9099 91.3596 35.5778 91.3596 34.5392C91.3596 33.4266 92.3318 32.9565 93.161 32.9565C93.9137 32.9565 94.4845 33.2809 94.7554 33.654L94.2988 34.0321Z" fill="white"/>
</g>
<defs>
<clipPath id="clip0_4_60">
<rect width="95" height="39" fill="white"/>
</clipPath>
</defs>
</svg>
