<svg width="97" height="28" viewBox="0 0 97 28" fill="none" xmlns="http://www.w3.org/2000/svg">
<g clip-path="url(#clip0_2_211)">
<path d="M37.9601 27.7978L32.5255 15.9735H35.1825L38.3218 22.6877L41.4409 15.9735H44.0995L38.6804 27.7978H37.9601Z" fill="white"/>
<path d="M51.6083 20.5287V27.7978H49.7845V27.0893C49.2155 27.5632 48.5205 27.8672 47.7817 27.9654C47.0428 28.0636 46.2908 27.9518 45.6143 27.6434C44.9379 27.3349 44.3652 26.8426 43.9639 26.2245C43.5626 25.6064 43.3494 24.8883 43.3494 24.1549C43.3494 23.4215 43.5626 22.7033 43.9639 22.0852C44.3652 21.4671 44.9379 20.9748 45.6143 20.6663C46.2908 20.3579 47.0428 20.2462 47.7817 20.3443C48.5205 20.4425 49.2155 20.7465 49.7845 21.2205L49.9591 20.5287H51.6083ZM49.4444 24.1564C49.452 23.6341 49.2492 23.1302 48.8802 22.7546C48.7057 22.5735 48.4955 22.4293 48.2624 22.3308C48.0294 22.2322 47.7784 22.1814 47.5247 22.1814C47.2689 22.1827 47.016 22.2341 46.7807 22.3325C46.5453 22.4309 46.3322 22.5744 46.1537 22.7546C45.7897 23.1335 45.5868 23.635 45.5864 24.1564C45.59 24.6762 45.7926 25.1756 46.1537 25.5552C46.3319 25.7358 46.5449 25.8797 46.7803 25.9784C47.0157 26.0771 47.2688 26.1286 47.5247 26.1299C47.7785 26.1299 48.0297 26.079 48.2628 25.9801C48.4958 25.8813 48.706 25.7367 48.8802 25.5552C49.2467 25.1792 49.4492 24.6772 49.4444 24.1564Z" fill="white"/>
<path d="M55.7755 15.2483H53.5822V27.7993H55.7755V15.2483Z" fill="white"/>
<path d="M65.5827 24.1579C65.5827 26.2987 63.7681 28 61.4852 28C59.2022 28 57.4046 26.2987 57.4046 24.1579C57.4046 22.0172 59.2223 20.3097 61.4852 20.3097C63.748 20.3097 65.5827 22.0278 65.5827 24.1579ZM63.4188 24.1397C63.4247 23.6253 63.2274 23.1287 62.8685 22.7546C62.6949 22.5675 62.4833 22.4183 62.2474 22.3167C62.0115 22.2151 61.7566 22.1633 61.4991 22.1646C61.2462 22.1638 60.996 22.216 60.7652 22.3177C60.5344 22.4194 60.3283 22.5684 60.1605 22.7546C59.9713 22.9371 59.822 23.1557 59.7218 23.397C59.6216 23.6383 59.5726 23.8973 59.5778 24.1579C59.573 24.4198 59.6221 24.68 59.7222 24.9228C59.8224 25.1655 59.9715 25.3858 60.1605 25.5704C60.3312 25.7519 60.5383 25.8966 60.7687 25.9955C60.999 26.0944 61.2477 26.1454 61.4991 26.1451C61.7551 26.1458 62.0085 26.0952 62.244 25.9964C62.4794 25.8976 62.6919 25.7527 62.8685 25.5704C63.2287 25.1787 63.4252 24.6677 63.4188 24.1397Z" fill="white"/>
<path d="M69.1857 21.3543C69.7344 20.6488 70.7143 20.3447 71.6881 20.3447C72.1138 20.3433 72.5369 20.4111 72.9401 20.5454L72.0993 22.4185C71.8311 22.2929 71.5372 22.2295 71.2403 22.2332C70.9433 22.2369 70.6511 22.3075 70.3863 22.4397C70.1214 22.5719 69.8909 22.762 69.7125 22.9956C69.5341 23.2292 69.4126 23.4999 69.3572 23.7869V27.8008H67.2119V20.5271H68.8765L69.1857 21.3543Z" fill="white"/>
<path d="M80.6051 26.6514C80.2412 27.0757 79.7872 27.4165 79.275 27.6498C78.7628 27.883 78.2049 28.0031 77.6405 28.0015C76.8636 28.0018 76.104 27.7755 75.4579 27.3511C74.8118 26.9267 74.3082 26.3233 74.0107 25.6173C73.7132 24.9113 73.6353 24.1344 73.7868 23.3848C73.9383 22.6352 74.3124 21.9467 74.8618 21.4063C75.4112 20.8659 76.1111 20.4979 76.8731 20.3489C77.6351 20.1999 78.425 20.2765 79.1427 20.5691C79.8604 20.8617 80.4738 21.3571 80.9052 21.9927C81.3367 22.6283 81.5668 23.3754 81.5665 24.1397C81.5692 24.371 81.5464 24.6019 81.4985 24.8284H75.9758C76.071 25.0907 76.2169 25.3323 76.4055 25.54C76.5706 25.7242 76.7734 25.872 77.0006 25.9737C77.2278 26.0754 77.4744 26.1286 77.724 26.1299C78.2033 26.1203 78.6595 25.9259 78.9945 25.5886L80.6051 26.6514ZM79.4907 23.5482C79.4059 23.2399 79.2468 22.9562 79.027 22.7211C78.8617 22.5419 78.6605 22.3984 78.4359 22.2998C78.2113 22.2011 77.9684 22.1494 77.7224 22.1479C77.4745 22.1494 77.2295 22.2011 77.0026 22.2997C76.7758 22.3983 76.572 22.5418 76.404 22.7211C76.196 22.9644 76.0384 23.2454 75.9403 23.5482H79.4907Z" fill="white"/>
<path d="M83.9855 25.318C85.0675 26.5343 86.7105 26.583 86.7105 25.6722C86.7105 25.134 86.1788 24.9652 85.6285 24.7965C84.1895 24.3571 83.1957 23.9192 83.1957 22.5159C83.1957 21.184 84.4105 20.3067 85.8233 20.3067C87.0907 20.3067 87.777 20.5758 88.7709 21.1672L87.777 22.7029C86.338 21.6887 85.3611 21.7739 85.2576 22.5508C85.1695 23.0891 85.9779 23.1894 86.8326 23.4737C87.879 23.7778 88.859 24.4711 88.859 25.7179C88.859 26.884 87.641 27.9985 86.1324 27.9985C84.7923 27.9985 83.5249 27.5773 82.616 26.6848L83.9855 25.318Z" fill="white"/>
<path d="M41.0638 10.5578H36.0898L34.9584 12.7487H32.2674L38.3882 0.927454H39.0915L44.7672 12.7487H42.1102L41.0638 10.5578ZM39.9324 8.19657L38.6804 5.56473L37.3248 8.19657H39.9324Z" fill="white"/>
<path d="M47.9297 6.05582C48.4614 5.5997 49.1461 5.27737 49.7968 5.27737C50.8618 5.27737 51.7892 5.83536 52.4044 6.71264C52.6857 6.28148 53.0706 5.92504 53.5251 5.67474C53.9795 5.42444 54.4896 5.28797 55.0104 5.27737C56.8451 5.27737 58.3382 6.99848 58.3382 9.14075V12.7502H56.4107V9.14075C56.4107 8.0947 55.7415 7.16421 54.7646 7.16421C53.7877 7.16421 53.171 8.10838 53.1355 9.01759V12.7502H51.2158V9.14075C51.2158 8.0947 50.5279 7.16421 49.5681 7.16421C48.7288 7.16421 48.1971 7.80278 47.9915 8.56299V12.7502H45.9342V5.48262H47.5958L47.9297 6.05582Z" fill="white"/>
<path d="M66.9074 11.6053C66.5416 12.0287 66.0866 12.3686 65.5738 12.6015C65.0611 12.8344 64.5029 12.9546 63.9381 12.954C63.1615 12.9534 62.4025 12.7263 61.7571 12.3015C61.1117 11.8767 60.6087 11.2732 60.3119 10.5673C60.0151 9.86137 59.9376 9.08474 60.0894 8.33556C60.2412 7.58638 60.6153 6.89827 61.1646 6.35822C61.7138 5.81816 62.4135 5.45039 63.1752 5.30139C63.9369 5.1524 64.7264 5.22887 65.4439 5.52113C66.1614 5.8134 66.7747 6.30834 67.2063 6.94341C67.6379 7.57847 67.8685 8.32514 67.8688 9.08905C67.8709 9.32093 67.8476 9.55237 67.7992 9.77932H62.2765C62.3705 10.0414 62.516 10.2826 62.7047 10.4894C62.8698 10.6743 63.0731 10.8225 63.3009 10.9242C63.5288 11.0259 63.776 11.0788 64.0262 11.0793C64.5043 11.0699 64.9596 10.8761 65.2937 10.5395L66.9074 11.6053ZM65.7898 8.50065C65.7047 8.19245 65.5457 7.90883 65.3261 7.67354C65.1616 7.49424 64.9609 7.35055 64.7368 7.25161C64.5128 7.15267 64.2703 7.10064 64.0247 7.09883C63.7761 7.10048 63.5306 7.15235 63.3032 7.25122C63.0759 7.35008 62.8717 7.49382 62.7031 7.67354C62.496 7.91739 62.3386 8.19821 62.2394 8.50065H65.7898ZM63.3384 3.08645L67.0604 1.38206L65.0866 0L62.3044 2.36121L63.3384 3.08645Z" fill="white"/>
<path d="M71.5537 6.30821C72.1024 5.5997 73.0808 5.29713 74.0561 5.29713C74.4813 5.29562 74.9039 5.36344 75.3065 5.49783L74.4688 7.37098C74.2006 7.24509 73.9066 7.18144 73.6094 7.18496C73.3122 7.18847 73.0198 7.25905 72.7548 7.39125C72.4897 7.52345 72.259 7.71375 72.0806 7.94748C71.9021 8.1812 71.7805 8.45212 71.7252 8.73936V12.7533H69.5798V5.4811H71.2445L71.5537 6.30821Z" fill="white"/>
<path d="M77.0222 0.925934H79.2341V3.28714H77.0222V0.925934ZM77.0222 5.48719H79.2341V12.7548H77.0222V5.48719Z" fill="white"/>
<path d="M86.6085 7.74196C85.494 6.54387 83.0936 7.30408 83.0936 9.12402C83.0936 10.7433 85.3209 11.7726 86.6085 10.5228L87.5683 12.2105C86.8511 12.6918 86.0037 12.9508 85.1354 12.954C82.871 12.954 81.0363 11.2328 81.0363 9.09057C81.0363 6.94831 82.871 5.24544 85.1354 5.24544C86.0219 5.24333 86.8868 5.5145 87.6085 6.02085L86.6085 7.74196Z" fill="white"/>
<path d="M97 5.4811V12.7487H95.1823V12.0417C94.6132 12.5162 93.918 12.8207 93.1787 12.9191C92.4394 13.0176 91.6869 12.9061 91.01 12.5976C90.333 12.2891 89.7599 11.7966 89.3583 11.1781C88.9567 10.5597 88.7433 9.84115 88.7433 9.1073C88.7433 8.37344 88.9567 7.6549 89.3583 7.03647C89.7599 6.41803 90.333 5.92551 91.01 5.61702C91.6869 5.30853 92.4394 5.19695 93.1787 5.29545C93.918 5.39394 94.6132 5.6984 95.1823 6.17289L95.3539 5.4811H97ZM94.8361 9.10578C94.8396 8.84739 94.7914 8.59085 94.694 8.35084C94.5967 8.11082 94.4522 7.89203 94.2688 7.70699C94.0945 7.52567 93.8843 7.38129 93.6512 7.28272C93.4181 7.18416 93.167 7.13348 92.9133 7.1338C92.6573 7.1353 92.4042 7.18674 92.1686 7.28513C91.933 7.38352 91.7196 7.52691 91.5407 7.70699C91.1775 8.08511 90.9751 8.58557 90.975 9.10578C90.9779 9.6268 91.1799 10.1277 91.5407 10.5091C91.7197 10.689 91.9331 10.8321 92.1687 10.9303C92.4043 11.0284 92.6574 11.0796 92.9133 11.0808C93.167 11.0818 93.4181 11.0315 93.6513 10.9332C93.8845 10.8349 94.0946 10.6905 94.2688 10.5091C94.6369 10.1321 94.8404 9.62846 94.8361 9.10578Z" fill="white"/>
<path d="M17.0627 7.63705H10.2478V27.7993H17.0627V7.63705Z" fill="white"/>
<path d="M27.278 0.930495H20.4678V27.7993H27.278V0.930495Z" fill="white"/>
<path d="M6.84268 14.3603H0V27.7993H6.84268V14.3603Z" fill="white"/>
</g>
<defs>
<clipPath id="clip0_2_211">
<rect width="97" height="28" fill="white"/>
</clipPath>
</defs>
</svg>
