<svg width="116" height="27" viewBox="0 0 116 27" fill="none" xmlns="http://www.w3.org/2000/svg">
<g clip-path="url(#clip0_2_166)">
<path d="M12.8698 17.8498V9.36216C12.8643 9.29474 12.873 9.22691 12.8954 9.16317C12.9178 9.09944 12.9533 9.04125 12.9996 8.99249C13.0459 8.94372 13.1019 8.90548 13.1639 8.88032C13.2259 8.85515 13.2925 8.84363 13.3592 8.84652H13.7952C14.1157 8.84652 14.3032 9.03533 14.3032 9.36216V10.8484C14.7916 9.32352 16.1488 8.64004 17.4275 8.64004C18.5405 8.64004 19.9718 9.03865 20.6291 10.8693C21.3835 9.0795 22.8148 8.64004 23.9256 8.64004C26.0731 8.64004 27.6319 9.8226 27.6319 12.9695V17.8531C27.6319 18.1767 27.4433 18.3666 27.1218 18.3666H26.6857C26.3641 18.3666 26.1973 18.1767 26.1973 17.8531V12.9661C26.1973 10.6584 25.0277 9.93522 23.8438 9.93522C22.8813 9.93522 21.0542 10.5977 20.9605 13.5966V17.8498C20.9605 18.1734 20.7741 18.3633 20.4514 18.3633H20.0154C19.7123 18.3633 19.5248 18.1734 19.5248 17.8498V12.9661C19.5248 10.6584 18.3748 9.93522 17.1691 9.93522C16.1346 9.93522 14.3098 10.6772 14.2891 13.749V17.8498C14.2891 18.1734 14.1016 18.3633 13.7811 18.3633H13.345C13.0442 18.3633 12.8556 18.1734 12.8556 17.8498" fill="white"/>
<path d="M38.062 12.4693C37.626 10.5072 36.1609 9.9297 34.8604 9.9297C33.3909 9.9297 31.9258 10.7126 31.3721 12.4693H38.062ZM29.7947 13.6529C29.7947 10.887 31.9258 8.63673 34.8233 8.63673C37.1213 8.63673 39.2677 10.0291 39.5108 13.081C39.5675 13.4045 39.3592 13.5966 39.0224 13.5966H31.2467C31.1126 15.7144 32.7532 17.279 35.0686 17.279C36.089 17.2902 37.0836 16.9543 37.8931 16.325C37.9937 16.2402 38.123 16.1985 38.2535 16.2088C38.384 16.2192 38.5054 16.2806 38.5918 16.3802L38.7401 16.5337C38.9472 16.7633 38.9472 17.0681 38.6311 17.3364C37.541 18.2683 36.2579 18.5742 35.0719 18.5742C31.8332 18.5742 29.798 16.3427 29.798 13.6529" fill="white"/>
<path d="M41.7128 17.8498V9.36216C41.7073 9.29455 41.7161 9.22652 41.7386 9.16262C41.7611 9.09872 41.7968 9.04043 41.8434 8.99162C41.8899 8.94282 41.9462 8.90463 42.0084 8.87961C42.0707 8.85459 42.1375 8.84331 42.2044 8.84652H42.6405C42.9609 8.84652 43.1473 9.03533 43.1473 9.36216V11.1553C43.5049 9.6095 44.522 8.63673 45.8966 8.63673C46.0056 8.63673 46.2236 8.65661 46.3479 8.67317C46.6291 8.73279 46.688 8.96025 46.688 9.24512V9.64483C46.688 10.007 46.555 10.1605 46.3097 10.0865C46.1408 10.0688 45.9522 10.0523 45.8039 10.0523C44.5972 10.0523 43.1659 11.1189 43.1473 14.7438V17.852C43.1473 18.1756 42.9609 18.3655 42.6405 18.3655H42.2044C41.9014 18.3655 41.7128 18.1756 41.7128 17.852" fill="white"/>
<path d="M48.4387 17.8487V9.36216C48.4332 9.29316 48.4424 9.22377 48.4659 9.15875C48.4894 9.09373 48.5265 9.03463 48.5746 8.98553C48.6228 8.93642 48.6809 8.89846 48.745 8.87428C48.809 8.85009 48.8775 8.84024 48.9456 8.84542H49.3817C49.6836 8.84542 49.8711 9.03644 49.8711 9.36216V17.8487C49.8711 18.1722 49.6836 18.3644 49.3817 18.3644H48.9456C48.6262 18.3644 48.4387 18.1722 48.4387 17.8487ZM48.1182 5.6809C48.1182 5.05042 48.5543 4.5922 49.1527 4.5922C49.737 4.5922 50.1872 5.05042 50.1872 5.6809C50.1912 5.82048 50.1673 5.95943 50.117 6.08942C50.0666 6.21941 49.9909 6.33776 49.8943 6.43737C49.7976 6.53698 49.6822 6.6158 49.5547 6.66909C49.4273 6.72239 49.2906 6.74906 49.1527 6.74752C49.0145 6.75048 48.8771 6.72478 48.7491 6.67198C48.621 6.61918 48.5049 6.54041 48.4081 6.44051C48.3112 6.34061 48.2355 6.22168 48.1856 6.09105C48.1358 5.96042 48.1128 5.82084 48.1182 5.6809Z" fill="white"/>
<path d="M52.2421 13.6905C52.2421 10.9091 54.1236 8.63673 57.5323 8.63673C58.5497 8.65037 59.5447 8.94057 60.4135 9.477C60.7144 9.64814 60.7525 9.93633 60.5628 10.2002L60.432 10.3725C60.2445 10.6397 60.0374 10.6584 59.7365 10.5072C59.0794 10.1372 58.3408 9.94091 57.589 9.93633C55.2715 9.93633 53.7094 11.4976 53.6919 13.6143C53.7094 15.7321 55.2715 17.2768 57.589 17.2768C58.3408 17.2711 59.0792 17.0744 59.7365 16.7048C60.0374 16.5536 60.2631 16.5944 60.432 16.8594L60.541 17.0283C60.7285 17.2967 60.6337 17.6423 60.1628 17.8863C59.354 18.3321 58.4488 18.568 57.528 18.5731C54.1955 18.5731 52.2541 16.4001 52.2377 13.6905" fill="white"/>
<path d="M70.4675 13.6198C70.4675 11.5219 69.0384 9.93854 66.9094 9.93854C64.7445 9.93854 63.5017 11.6158 63.5017 13.6198C63.5017 15.6238 64.763 17.2812 66.9301 17.2812C69.0013 17.2812 70.4675 15.7541 70.4675 13.6198ZM62.0737 13.6198C62.0737 10.8925 63.8811 8.64115 66.7612 8.64115C68.2873 8.64115 69.6063 9.30364 70.4533 10.7391V9.36216C70.4533 9.05521 70.6212 8.84652 70.9428 8.84652H71.3788C71.6982 8.84652 71.8868 9.03644 71.8868 9.36216V17.8498C71.8934 17.9191 71.8848 17.9889 71.8616 18.0544C71.8384 18.1198 71.8012 18.1793 71.7526 18.2285C71.7041 18.2776 71.6454 18.3153 71.5808 18.3388C71.5161 18.3623 71.4472 18.371 71.3788 18.3644H70.9428C70.6158 18.3644 70.4533 18.1734 70.4533 17.8498V16.4906C69.6063 17.9426 68.2731 18.5708 66.7612 18.5708C63.9193 18.5708 62.0737 16.3393 62.0737 13.6121" fill="white"/>
<path d="M82.0128 13.5193C81.9932 11.7847 80.8813 10.5072 79.2058 10.5072C77.4921 10.5072 76.4925 11.8785 76.4925 13.5193C76.4925 15.1756 77.4921 16.5326 79.2058 16.5326C80.8813 16.5326 81.9932 15.2562 82.0128 13.5193ZM74.0638 13.5193C74.0638 10.6982 75.9649 8.46559 78.7338 8.46559C79.9972 8.46559 81.1647 8.94258 81.9746 10.1218V9.49687C81.9746 8.98123 82.257 8.67427 82.7649 8.67427H83.5923C84.1025 8.67427 84.4034 8.98123 84.4034 9.49687V17.5639C84.4034 18.0784 84.1025 18.3644 83.5923 18.3644H82.7649C82.257 18.3644 81.9746 18.0784 81.9746 17.5639V16.9157C81.1647 18.0972 79.9972 18.572 78.7338 18.572C75.9649 18.572 74.0638 16.3416 74.0638 13.5171" fill="white"/>
<path d="M94.2699 13.5193C94.2535 11.7847 93.1405 10.4862 91.464 10.4862C89.7503 10.4862 88.7518 11.8785 88.7518 13.5193C88.7518 15.1756 89.7503 16.5524 91.464 16.5524C93.1405 16.5524 94.2535 15.2551 94.2699 13.5193ZM87.7925 21.9109C87.3565 21.6658 87.2834 21.2639 87.5091 20.8068L87.6977 20.4645C87.9604 19.9853 88.319 19.9124 88.7703 20.1763C89.5419 20.6311 90.4198 20.8679 91.3124 20.862C93.0457 20.862 94.2557 19.8903 94.2557 17.9061V16.9124C93.4632 18.0939 92.2576 18.5686 90.9963 18.5686C88.2285 18.5686 86.3427 16.2985 86.3427 13.5138C86.3427 10.7534 88.2285 8.45896 90.9963 8.45896C92.2576 8.45896 93.4436 8.93486 94.235 10.1152V9.43725C94.235 8.94038 94.5173 8.67317 95.0264 8.67317H95.8364C96.3433 8.67317 96.6245 8.98123 96.6245 9.49466V17.926C96.6245 21.4141 94.2143 22.8473 91.4454 22.8473C89.8833 22.8473 88.7354 22.4641 87.7947 21.9098" fill="white"/>
<path d="M99.2059 17.5639V9.49687C99.2059 8.98123 99.4882 8.67317 99.9973 8.67317H100.788C101.296 8.67317 101.577 8.98123 101.577 9.49687V10.8307C101.896 9.17446 103.122 8.46559 104.102 8.46559C104.228 8.46919 104.355 8.48173 104.48 8.50313C104.893 8.54177 104.968 8.88517 104.968 9.2661V10.219C104.968 10.717 104.743 10.9257 104.384 10.866C104.224 10.8308 104.06 10.812 103.897 10.8097C102.991 10.8097 101.635 11.3618 101.635 14.5307V17.5639C101.635 18.0795 101.333 18.3644 100.826 18.3644H99.9973C99.4882 18.3644 99.2059 18.0795 99.2059 17.5639Z" fill="white"/>
<path d="M113.646 13.5392C113.646 11.8609 112.404 10.5237 110.821 10.5237C109.238 10.5237 107.996 11.8609 107.996 13.5392C107.996 15.1954 109.238 16.5204 110.821 16.5204C112.404 16.5204 113.646 15.2032 113.646 13.5447V13.5392ZM105.66 13.5248C105.66 10.7413 107.903 8.47111 110.821 8.47111C113.739 8.47111 116 10.7589 116 13.5248C116 16.3305 113.739 18.5797 110.821 18.5797C107.903 18.5797 105.66 16.3305 105.66 13.5248Z" fill="white"/>
<path d="M4.86513 17.2768C2.70019 17.2768 1.43894 15.6205 1.43894 13.6154C1.43894 11.6102 2.68057 9.93522 4.84769 9.93522C6.97557 9.93522 8.40578 11.5219 8.40578 13.6198C8.40578 15.7552 6.93851 17.2812 4.86513 17.2812V17.2768ZM9.30948 8.84652H8.87344C8.55513 8.84652 8.38507 9.05631 8.38507 9.36216V10.7346C7.53806 9.29923 6.21904 8.63673 4.69617 8.63673C3.65197 8.61802 2.63252 8.95949 1.80521 9.60508C2.36785 6.93021 3.50483 4.41355 5.13548 2.23371C6.33459 3.84026 7.1489 5.70188 7.92614 7.60103C7.97495 7.73777 8.06682 7.85445 8.18759 7.93307C8.30835 8.01169 8.45129 8.04788 8.59437 8.03607H9.52096C8.81849 5.51999 7.63883 3.16663 6.04789 1.10747C5.75684 0.726537 5.45379 0.358852 5.13548 0.00331247C4.81717 0.362164 4.51848 0.729849 4.22197 1.10747C1.48671 4.64419 0.000389099 9.00731 0.000389099 13.5C0.000389099 17.9927 1.48671 22.3558 4.22197 25.8925C4.51848 26.2724 4.81717 26.6445 5.13548 26.9967C5.45379 26.6411 5.75684 26.269 6.04789 25.8925C7.63172 23.8449 8.80724 21.5048 9.50897 19.0026H9.30948C9.11762 19.0412 8.86472 19.0026 8.59437 19.0026C8.19757 19.0026 8.00463 19.2179 7.88363 19.5326C7.17288 21.4096 6.30734 23.1962 5.13548 24.7674C3.55971 22.6548 2.445 20.2273 1.86517 17.6456C2.68237 18.2644 3.67924 18.591 4.69944 18.5742C6.20378 18.5742 7.54133 17.9448 8.38834 16.4928V17.8487C8.38834 18.1734 8.5584 18.3644 8.87671 18.3644H9.31275C9.63324 18.3644 9.82074 18.1734 9.82074 17.8487V9.36216C9.82074 9.03092 9.63324 8.84652 9.31275 8.84652" fill="white"/>
</g>
<defs>
<clipPath id="clip0_2_166">
<rect width="116" height="27" fill="white"/>
</clipPath>
</defs>
</svg>
