<svg width="114" height="27" viewBox="0 0 114 27" fill="none" xmlns="http://www.w3.org/2000/svg">
<g clip-path="url(#clip0_2_32)">
<path d="M31.2013 5.59945C32.3707 3.56607 35.4466 3.4089 36.7272 5.63839C37.0745 5.1822 37.4025 4.72184 37.9131 4.44507C40.3275 3.13213 42.923 4.56468 43.0671 7.36579C43.1659 9.27678 43.0932 11.1961 43.1083 13.1113C43.1083 13.3894 42.9957 13.4659 42.7418 13.459C42.2641 13.4465 41.781 13.4339 41.3075 13.459C40.93 13.484 40.8559 13.3199 40.8573 12.9791C40.8669 11.3102 40.8573 9.63144 40.8463 7.95689C40.8459 7.78479 40.8275 7.61322 40.7914 7.44506C40.5978 6.55355 40.1051 6.03338 39.4298 5.97218C38.5376 5.89291 37.8143 6.31572 37.4629 7.14882C37.246 7.67743 37.1381 8.24539 37.1458 8.81781C37.1458 10.1808 37.1239 11.5452 37.1596 12.9082C37.1719 13.3853 37.0223 13.5035 36.5817 13.4645C36.1729 13.4319 35.7621 13.4319 35.3533 13.4645C34.9868 13.4896 34.8921 13.3491 34.8962 12.993C34.9127 11.4228 34.9044 9.85258 34.8962 8.28234C34.9079 7.9549 34.8755 7.62738 34.8001 7.30877C34.6135 6.62726 34.2662 6.10292 33.5291 5.98749C33.1468 5.91951 32.7531 5.97735 32.4056 6.15254C32.0581 6.32773 31.775 6.61107 31.5979 6.96106C31.3191 7.49748 31.1815 8.09772 31.1985 8.70376C31.1889 10.1363 31.1848 11.5688 31.1985 13.0014C31.1985 13.3616 31.1052 13.4896 30.7414 13.4673C30.2652 13.4381 29.7806 13.4534 29.3071 13.4673C29.0669 13.4673 28.931 13.4284 28.931 13.1335C28.9393 10.2684 28.9393 7.40334 28.931 4.53825C28.931 4.27399 29.0491 4.22393 29.2742 4.2281C29.7861 4.23783 30.2995 4.2434 30.8101 4.2281C31.0928 4.21836 31.2218 4.30181 31.1944 4.60501C31.1669 4.90821 31.2013 5.17664 31.2013 5.59945Z" fill="white"/>
<path d="M72.554 13.6634C70.2453 13.6634 68.4102 12.4659 67.7911 10.5285C66.8496 7.57858 68.4294 4.30598 72.1518 4.02643C73.4763 3.92768 74.6828 4.28095 75.8111 4.96662C76.124 5.15717 76.2571 5.33797 75.9895 5.68429C75.7218 6.0306 75.586 6.51878 75.2566 6.72462C74.8832 6.95828 74.5703 6.44645 74.1983 6.30737C72.7448 5.77191 71.1787 6.10431 70.3551 7.15995C69.0773 8.8178 70.0463 11.2643 72.1065 11.5855C73.1044 11.7413 74.0473 11.6147 74.8846 11.0125C75.133 10.8345 75.2634 10.8832 75.3979 11.1293C75.5036 11.3255 75.6367 11.5077 75.7589 11.694C76.2681 12.4729 76.2695 12.4729 75.4391 12.9458C74.514 13.4659 73.7152 13.6662 72.554 13.6634Z" fill="white"/>
<path d="M65.6334 8.87065C65.6334 10.2323 65.6224 11.5953 65.6403 12.9569C65.6403 13.3255 65.5716 13.4951 65.1667 13.4645C64.6894 13.4388 64.2111 13.4388 63.7338 13.4645C63.4593 13.4743 63.3851 13.3672 63.3851 13.1029C63.3915 10.2573 63.3915 7.41168 63.3851 4.56607C63.3851 4.2879 63.4949 4.21558 63.7488 4.22253C64.243 4.23644 64.7385 4.2434 65.2326 4.22253C65.5469 4.20723 65.6444 4.31572 65.6444 4.63978C65.6252 6.04173 65.6334 7.45619 65.6334 8.87065Z" fill="white"/>
<path d="M64.5793 0.0778823C64.7711 0.0752 64.9614 0.111771 65.1388 0.185403C65.3163 0.259034 65.4773 0.368212 65.6121 0.506393C65.747 0.644574 65.8529 0.808913 65.9235 0.989564C65.9941 1.17022 66.0281 1.36346 66.0233 1.55772C65.9917 2.31571 65.2999 2.94854 64.5038 2.93324C63.6556 2.9235 63.0544 2.30459 63.0695 1.45758C63.0846 0.610568 63.6844 0.0625832 64.5793 0.0778823Z" fill="white"/>
<path d="M52.8232 0.00278262C51.9997 1.0306 51.2832 1.94297 50.5489 2.84284C50.3169 3.12795 49.971 2.98192 49.6787 2.98192C48.6753 2.99861 48.6712 2.98192 49.1584 2.11544C49.5016 1.50209 49.8612 0.89708 50.2071 0.285119C50.295 0.130738 50.3801 -0.00417131 50.5873 -0.00138967C51.2805 0.00556443 51.9736 0.00278262 52.8232 0.00278262Z" fill="white"/>
<path d="M113.782 13.3825C113.616 13.2323 113.407 13.1384 113.186 13.114C112.829 13.0785 112.469 13.0855 112.114 13.1349C111.8 13.1599 111.746 13.0932 111.849 12.7747C112.136 11.8943 111.856 11.3936 110.978 11.1057C110.661 11 110.466 11.0334 110.415 11.4395C110.348 11.968 110.219 12.4882 110.114 13.0125C110.07 13.2323 109.993 13.37 109.713 13.356C109.219 13.3296 108.721 13.3755 108.269 13.1085C108.003 12.9527 107.884 13.0403 107.908 13.3421C107.915 13.4804 107.949 13.6159 108.008 13.7407C108.067 13.8655 108.15 13.977 108.253 14.0686C108.355 14.1603 108.475 14.2302 108.604 14.2743C108.733 14.3185 108.87 14.3358 109.007 14.3255C109.234 14.3171 109.464 14.2295 109.679 14.3129C109.267 16.3992 108.054 17.9805 106.721 19.4979C106.603 19.637 106.447 19.8623 106.27 19.7594C106.069 19.6398 106.27 19.4256 106.322 19.2656C106.723 18.153 107.118 17.0306 107.545 15.9277C107.745 15.4089 107.567 15.0835 107.158 14.7844C106.727 14.4715 106.397 14.6259 106.079 14.9485C105.389 15.6665 104.745 16.4279 104.15 17.2281C104.027 17.3894 103.929 17.5883 103.669 17.7246C103.916 17.0362 104.15 16.4312 104.348 15.8122C104.506 15.3213 103.902 14.6426 103.387 14.6898C103.207 14.7065 103.173 14.8095 103.147 14.9597C103.01 15.8053 102.553 16.4673 101.982 17.0834C101.151 17.9791 100.379 18.9346 99.2792 19.5104C98.9662 19.6745 98.56 19.9736 98.2484 19.6495C97.9368 19.3255 98.225 18.9013 98.3101 18.5243C98.3431 18.3853 98.4117 18.3547 98.5641 18.3644C99.7472 18.4465 100.676 17.8679 101.143 16.7761C101.37 16.2476 101.175 15.5897 100.648 15.1071C100.147 14.6495 99.6498 14.5786 99.1049 14.8915C98.5941 15.2082 98.1591 15.6357 97.8311 16.1433C97.1448 17.1266 96.4586 18.121 95.7531 19.0904C95.5321 19.3922 95.3056 19.7288 94.8664 19.8484C94.8664 19.4172 95.0681 19.0876 95.1903 18.7357C95.5238 17.7789 95.8931 16.8331 96.228 15.8748C96.4105 15.3547 96.2623 15.1015 95.7613 14.7622C95.3289 14.4757 95.075 14.6787 94.817 15.0083C94.4217 15.5271 94.0332 16.0515 93.6324 16.5675C93.3744 16.8999 93.1905 17.2907 92.8652 17.5786C92.776 17.4395 92.8652 17.3602 92.8967 17.267C93.0738 16.7455 93.281 16.2337 93.4238 15.7038C93.5748 15.1474 93.1081 14.9652 92.7526 14.7469C92.3971 14.5285 92.2475 14.7858 92.0663 15.0445C91.5969 15.7399 91.1055 16.4353 90.621 17.1168C90.54 17.2323 90.4947 17.4645 90.2779 17.3505C90.4659 16.8331 90.6677 16.3394 90.8269 15.8317C90.9861 15.3241 90.4151 14.6523 89.8894 14.6787C89.8555 14.6768 89.8217 14.682 89.7898 14.6939C89.758 14.7057 89.7289 14.7241 89.7043 14.7478C89.6797 14.7715 89.6603 14.8001 89.647 14.8318C89.6338 14.8634 89.627 14.8975 89.6273 14.9319C89.49 15.8595 88.9918 16.5786 88.3714 17.2434C87.5986 18.0779 86.8615 18.9471 85.8472 19.4854C85.5274 19.6537 85.1239 19.9458 84.8109 19.6565C84.498 19.3672 84.7464 18.9138 84.8384 18.5438C84.8727 18.4047 84.9427 18.3449 85.1307 18.363C85.6917 18.4124 86.2528 18.2707 86.7252 17.9603C87.1976 17.6499 87.5543 17.1886 87.7386 16.6495C87.8992 16.1697 87.6343 15.4701 87.1319 15.0501C86.6296 14.63 86.1862 14.5841 85.6715 14.872C85.1348 15.1711 84.7451 15.6245 84.3909 16.1238C83.5358 17.3102 82.6423 18.4645 81.6979 19.58C81.6334 19.6565 81.595 19.8067 81.4097 19.7191C81.4619 19.5675 81.5044 19.4228 81.5579 19.2809C82.0007 18.1425 82.386 16.982 82.7123 15.8039C82.829 15.3741 82.4378 14.8804 81.8887 14.7524C81.3397 14.6245 81.5442 15.1238 81.4179 15.3449C81.385 15.4019 81.3809 15.4743 81.2807 15.484C81.0062 15.2392 80.7577 14.9569 80.4119 14.7886C79.7256 14.452 79.3646 14.5104 78.891 15.1113C78.6284 15.4711 78.3868 15.8464 78.1677 16.235C77.4846 17.391 76.6736 18.4642 75.7506 19.4339C75.6229 19.5661 75.4541 19.7844 75.299 19.694C75.1041 19.5814 75.288 19.3574 75.3443 19.1961C75.7039 18.1738 76.0828 17.1586 76.4424 16.1363C76.662 15.5049 76.5426 15.2225 75.9647 14.9096C75.6284 14.7288 75.3485 14.6759 75.2675 15.1878C75.2675 15.2661 75.2477 15.3432 75.2099 15.4116C75.1722 15.48 75.1178 15.5375 75.052 15.5786C74.7973 15.2995 74.4992 15.0645 74.1694 14.8832C73.4639 14.5341 73.0974 14.605 72.5978 15.2045C72.2662 15.621 71.9722 16.0669 71.7194 16.5369C71.1285 17.5675 70.4295 18.5304 69.6345 19.4089C69.4794 19.5828 69.3352 19.7886 69.0539 19.7942C68.9688 19.5494 69.1156 19.3547 69.1911 19.1544C69.5901 18.0417 69.9963 16.9268 70.4099 15.8095C70.598 15.3102 70.3249 15.0362 69.9721 14.7761C69.6194 14.516 69.2858 14.5828 68.9756 14.8901C68.3153 15.5652 67.6977 16.282 67.1268 17.0362C66.9772 17.2281 66.8646 17.4645 66.5393 17.63C66.7466 17.0501 66.9305 16.5577 67.0993 16.0598C67.3285 15.3811 67.1666 15.0278 66.5242 14.758C66.2113 14.6189 66.0452 14.6606 65.9491 15.0529C65.4893 16.9013 64.2375 18.2351 63.0022 19.5744C62.9801 19.6007 62.9524 19.6216 62.9212 19.6356C62.8334 19.6648 62.7565 19.7858 62.6467 19.6843C62.5657 19.6078 62.6275 19.523 62.6549 19.4465C62.8787 18.8136 63.1079 18.1836 63.3316 17.5522C63.5265 16.9958 63.7365 16.4548 63.9012 15.8943C64.0303 15.4548 63.6857 14.9875 63.1751 14.8206C62.6357 14.644 62.7346 15.1391 62.5904 15.3769C62.5506 15.4451 62.563 15.5535 62.4299 15.5702C62.1185 15.209 61.7238 14.9314 61.281 14.7622C60.8596 14.6231 60.4781 14.6453 60.1637 15.0097C59.2403 16.1006 58.5621 17.382 58.1763 18.765C58.0088 19.3352 58.3341 19.8512 58.9559 20.178C59.6051 20.5188 59.9167 20.4729 60.4121 19.9583C60.5988 19.7636 60.7786 19.5633 60.979 19.3463C61.0174 19.5596 61.1074 19.7599 61.2409 19.9294C61.3744 20.0988 61.5472 20.2321 61.744 20.3172C61.9408 20.4024 62.1553 20.4368 62.3684 20.4173C62.5815 20.3979 62.7865 20.3252 62.9651 20.2058C63.3029 19.971 63.6125 19.6971 63.8875 19.3894C64.0014 19.274 64.0591 19.0292 64.2499 19.0779C64.4407 19.1266 64.3034 19.3449 64.335 19.484C64.4297 19.8929 64.9224 20.3324 65.3589 20.3908C65.8585 20.4562 65.5744 19.9736 65.7542 19.822C65.7869 19.7823 65.815 19.7389 65.8379 19.6926C66.6563 18.567 67.5419 17.4931 68.4897 16.4771C68.5021 16.4631 68.5501 16.477 68.5899 16.4854C68.6585 16.6926 68.5103 16.8442 68.4444 17.0111C68.1781 17.7065 67.883 18.3797 67.6305 19.0751C67.4932 19.4673 67.5152 19.8609 67.8625 20.1641C68.1727 20.4353 68.5199 20.6175 68.9399 20.4854C69.261 20.3638 69.5479 20.1648 69.7758 19.9054C70.0943 19.5814 70.4004 19.2462 70.7366 18.8915C70.7998 19.5758 71.0619 19.8901 71.6343 20.2128C72.6513 20.7844 73.0233 19.8359 73.6437 19.3254C73.6012 19.9346 73.9361 20.1599 74.3753 20.3102C74.6153 20.4029 74.8758 20.4275 75.1286 20.3812C75.3814 20.3348 75.6169 20.2194 75.8096 20.0473C76.2557 19.6843 76.603 19.2128 77.0902 18.7385C77.0353 19.6926 77.5528 20.1168 78.2555 20.3672C79.1889 20.6982 79.3962 19.7093 79.9973 19.3797C79.7228 20.1558 79.3975 20.9096 79.0942 21.6606C78.9723 21.9639 78.7652 22.2241 78.4985 22.4089C77.8122 22.9124 77.1012 23.4019 76.5165 24.0403C76.3667 24.1844 76.2667 24.3736 76.2314 24.5797C76.196 24.7859 76.2272 24.9981 76.3202 25.185C76.5055 25.6092 76.8528 25.783 77.3057 25.7858C77.9234 25.7858 78.3077 25.3908 78.6659 24.9722C79.5128 23.9833 80.0618 22.8136 80.6068 21.6426C80.673 21.4663 80.7744 21.3058 80.9046 21.1711C81.5017 20.6245 82.0026 19.9903 82.516 19.363C82.7713 19.0556 83.0211 18.7441 83.3395 18.3519C83.1432 19.9152 84.9701 20.9652 86.1862 20.0403C86.648 19.7154 87.0852 19.356 87.4943 18.9652C87.7386 18.7121 87.9692 18.4451 88.2066 18.185L88.311 18.2629C88.2204 18.541 88.1174 18.8039 88.0447 19.0807C87.8718 19.7288 88.3961 20.4353 89.0577 20.4715C89.1716 20.4715 89.2649 20.4562 89.3102 20.3463C89.7453 19.267 90.492 18.3811 91.1042 17.4103C91.1742 17.299 91.2016 17.1127 91.4295 17.1085C91.2785 17.5438 91.1083 17.9527 90.993 18.3769C90.8187 19.025 91.1302 19.5814 91.7342 19.751C91.8906 19.7942 92.054 19.8567 92.1748 19.6384C92.6799 18.7316 93.3881 17.9791 94.0319 17.1794C94.0474 17.1182 94.0787 17.0622 94.1226 17.0173C94.1665 16.9723 94.2214 16.94 94.2816 16.9235C94.3352 17.0876 94.2501 17.2017 94.1567 17.3074C93.9303 17.8999 93.6805 18.4854 93.4842 19.089C93.2564 19.7844 93.6214 20.3644 94.3242 20.523C94.7442 20.6175 95.0503 20.4089 95.3454 20.1655C95.8862 19.7163 96.2966 19.146 96.7605 18.5605C96.7193 19.9124 98.3705 20.936 99.5743 20.0904C100.111 19.7231 100.614 19.3074 101.077 18.8484C101.315 18.6078 101.566 18.3811 101.862 18.0988C101.761 18.5953 101.49 18.9638 101.523 19.4117C101.552 19.8289 101.984 20.274 102.457 20.3853C102.974 20.5118 102.79 20.0459 102.922 19.847C102.932 19.8331 102.938 19.8164 102.948 19.8025C103.78 18.5591 104.794 17.4701 105.787 16.3157C105.877 16.5841 105.732 16.733 105.666 16.9082C105.384 17.6287 105.087 18.3435 104.808 19.064C104.614 19.5633 104.741 19.9764 105.178 20.2865C105.616 20.5967 106.054 20.6147 106.5 20.2865C106.935 19.9519 107.328 19.5647 107.67 19.1335C107.784 18.9944 107.849 18.7942 108.095 18.7594C108.051 18.9917 107.998 19.2058 107.97 19.4242C107.948 19.5344 107.955 19.6486 107.991 19.7551C108.027 19.8617 108.09 19.9567 108.173 20.0306C108.646 20.4478 109.431 20.5355 109.93 20.1572C111.046 19.3157 111.786 18.146 112.546 16.9986C112.652 16.8387 112.684 16.5814 112.534 16.4771C112.335 16.3449 112.26 16.6161 112.173 16.7399C111.555 17.6092 110.953 18.4896 110.216 19.2629C110.035 19.4534 109.877 19.7051 109.567 19.7135C109.541 19.667 109.526 19.615 109.525 19.5617C109.523 19.5084 109.534 19.4555 109.557 19.4075C110.155 17.6857 110.753 15.9638 111.351 14.242C111.385 14.1446 111.396 14.0125 111.509 13.9958C112.179 13.8999 112.84 13.6551 113.529 13.8748C113.666 13.9207 113.839 14.1293 113.966 13.886C114.07 13.6745 113.918 13.5132 113.782 13.3825ZM99.8255 15.7691C99.927 15.6634 100.048 15.5035 100.21 15.5981C100.372 15.6926 100.289 15.8762 100.229 16.0153C99.9668 16.6175 99.5427 17.0445 98.8056 17.363C99.1351 16.6982 99.4178 16.1905 99.8255 15.7691ZM86.4251 15.7191C86.5143 15.6286 86.6255 15.5021 86.7709 15.6022C86.9164 15.7024 86.8396 15.8526 86.7888 15.9736C86.6778 16.266 86.5043 16.5299 86.2808 16.7463C86.0572 16.9627 85.7892 17.1263 85.4958 17.2253C85.6869 16.6574 86.0049 16.1419 86.4251 15.7191V15.7191ZM62.213 16.3115C61.9083 17.007 61.4526 17.612 61.0367 18.2406C60.7478 18.709 60.4055 19.1413 60.0169 19.5285C59.9441 19.5953 59.8604 19.7024 59.7588 19.6133C59.7108 19.5716 59.7259 19.4562 59.7135 19.3839C60.0828 18.1766 60.5371 17.032 61.3318 16.0584C61.524 15.8234 61.7518 15.8248 62.0181 15.9054C62.2679 15.9791 62.3159 16.0765 62.213 16.3115V16.3115ZM74.7637 16.4242C74.1993 17.5259 73.4982 18.55 72.6774 19.4715C72.6033 19.5535 72.5196 19.701 72.3878 19.6231C72.256 19.5452 72.326 19.4103 72.3576 19.2962C72.6517 18.1797 73.1494 17.1287 73.8249 16.1975C73.969 16.0056 74.1241 15.8108 74.4083 15.8484C74.8736 15.8859 74.9737 16.0264 74.7637 16.4242V16.4242ZM77.2604 24.6745C77.1561 24.765 77.0093 24.9249 76.8665 24.7636C76.7238 24.6022 76.8665 24.4631 76.9543 24.3463C77.2605 23.9531 77.6536 23.6382 78.1018 23.427C77.9342 23.9104 77.644 24.3407 77.2604 24.6745ZM81.0295 16.484C80.4489 17.4937 79.8669 18.5049 79.1271 19.4047C79.0269 19.5271 78.9103 19.7455 78.725 19.6398C78.5877 19.5591 78.681 19.3616 78.725 19.2114C79.0011 18.1285 79.4539 17.1 80.0646 16.1683C80.2019 15.9694 80.3391 15.7594 80.6205 15.7733C81.1668 15.7677 81.3095 15.9972 81.0295 16.484Z" fill="white"/>
<path d="M14.6822 10.6356C14.9457 10.5076 15.0267 10.3046 14.8963 10.0028C14.7659 9.70097 14.7591 9.25174 14.291 9.32128C13.3714 9.46036 12.9089 8.94854 12.3695 8.27817C11.8904 7.67733 11.6516 7.1961 11.9755 6.47983C12.0963 6.21279 12.062 5.95271 11.7449 5.78442C11.4279 5.61613 11.1561 5.31015 10.8061 5.69402C10.257 6.29902 9.65725 6.29207 8.86528 6.14047C8.02801 5.98192 7.45975 5.73853 7.22778 4.88874C7.13308 4.54103 6.86268 4.5758 6.60738 4.62587C6.33287 4.68289 5.94031 4.61196 5.9211 5.05702C5.87306 5.95828 5.38169 6.40612 4.59521 6.80807C3.91716 7.15438 3.38461 7.36439 2.72852 6.8943C2.47047 6.71071 2.22616 6.7427 2.02439 7.02225C1.82262 7.30181 1.47536 7.50487 1.76635 7.89569C2.29067 8.5911 2.16576 9.21558 1.85282 10.0042C1.55085 10.7636 1.23928 11.2656 0.408875 11.3449C0.181029 11.3672 -0.0372011 11.4729 0.0231919 11.7747C0.0835849 12.0765 -0.204666 12.548 0.319655 12.6926C1.1432 12.9193 1.51654 13.4214 1.78007 14.2698C2.02439 15.057 2.08616 15.6356 1.51655 16.2323C1.32576 16.4312 1.30517 16.6412 1.51655 16.8623C1.72792 17.0835 1.87067 17.5452 2.30577 17.3282C3.1101 16.9235 3.80737 17.0223 4.43738 17.662C4.46189 17.6864 4.4921 17.7041 4.5252 17.7135C5.276 17.911 5.51484 18.4325 5.46405 19.1683C5.44621 19.427 5.49288 19.6968 5.84563 19.7357C6.19838 19.7747 6.59366 20.0501 6.81876 19.5341C7.15229 18.7691 7.70682 18.5424 8.53859 18.4214C9.37037 18.3004 9.96194 18.3268 10.4506 19.0292C10.6249 19.2796 10.8431 19.2656 11.0682 19.1029C11.2933 18.9402 11.7545 18.9124 11.6241 18.4395C11.3798 17.5535 11.6022 16.8456 12.3598 16.3213C12.374 16.3116 12.3857 16.2988 12.3941 16.2837C12.7263 15.6732 13.1559 15.2851 13.7845 15.5883C14.1963 15.5883 14.4942 15.6718 14.6355 15.2462C14.7728 14.8512 14.9403 14.491 14.4846 14.2211C13.7475 13.7872 13.823 13.1307 13.7983 12.3825C13.7722 11.5605 13.9314 10.9986 14.6822 10.6356ZM2.79715 13C2.63283 12.9896 2.47878 12.9155 2.36706 12.7929C2.25534 12.6704 2.19454 12.5089 2.19733 12.3421C2.19931 12.2555 2.21871 12.1702 2.25434 12.0914C2.28996 12.0127 2.34107 11.9421 2.40454 11.884C2.46801 11.826 2.54251 11.7816 2.62346 11.7538C2.70442 11.7259 2.79013 11.715 2.87538 11.7218C3.25969 11.758 3.42441 12.0097 3.48343 12.3421C3.47108 12.7135 3.12382 13.0473 2.79715 13.0042V13ZM4.07225 15.9611C3.90732 15.9649 3.74747 15.9031 3.6269 15.789C3.50634 15.6749 3.43464 15.5175 3.42715 15.3505C3.39009 15.0139 3.71678 14.6759 4.05854 14.6704C4.14218 14.6695 4.22515 14.6852 4.30277 14.7168C4.38038 14.7484 4.45112 14.7952 4.5109 14.8545C4.57067 14.9138 4.61833 14.9844 4.65117 15.0623C4.68401 15.1403 4.70137 15.224 4.70227 15.3088C4.70317 15.3935 4.6876 15.4776 4.65643 15.5563C4.62526 15.6349 4.57908 15.7066 4.52058 15.7671C4.46208 15.8277 4.39239 15.876 4.31547 15.9093C4.23854 15.9425 4.15589 15.9601 4.07225 15.9611V15.9611ZM4.16561 9.81085C3.82247 9.81085 3.48891 9.47844 3.52872 9.13908C3.57264 8.77052 3.78264 8.54242 4.17245 8.53825C4.56225 8.53408 4.7613 8.79416 4.81071 9.14604C4.86012 9.49791 4.51012 9.81641 4.16561 9.81502V9.81085ZM6.77349 17.6704C6.68851 17.6745 6.60357 17.6611 6.52391 17.6308C6.44424 17.6005 6.37152 17.5541 6.31021 17.4943C6.24891 17.4345 6.20032 17.3627 6.16739 17.2832C6.13447 17.2037 6.11792 17.1182 6.11877 17.032C6.13936 16.6537 6.34798 16.4367 6.72818 16.3978C6.81338 16.3934 6.89857 16.4068 6.97844 16.4372C7.0583 16.4676 7.13115 16.5143 7.19243 16.5744C7.25371 16.6346 7.30211 16.7068 7.33465 16.7868C7.36718 16.8667 7.38314 16.9525 7.38153 17.0389C7.38509 17.1218 7.37189 17.2046 7.34276 17.2822C7.31362 17.3597 7.26916 17.4304 7.2121 17.4899C7.15504 17.5494 7.08657 17.5965 7.01091 17.6283C6.93525 17.66 6.854 17.6758 6.77211 17.6745L6.77349 17.6704ZM6.8517 8.03199C6.47836 7.99443 6.26701 7.77608 6.26152 7.38804C6.25951 7.30187 6.27537 7.21624 6.30814 7.1367C6.3409 7.05716 6.38979 6.98548 6.45166 6.92633C6.51353 6.86718 6.58699 6.82188 6.66726 6.79336C6.74753 6.76483 6.83281 6.75373 6.91758 6.76078C7.07177 6.76135 7.21985 6.82206 7.33103 6.93032C7.44221 7.03857 7.50796 7.18605 7.51466 7.34214C7.50917 7.76217 7.19759 8.07093 6.85033 8.03616L6.8517 8.03199ZM10.0086 17.1252C9.84384 17.1239 9.68588 17.0585 9.56735 16.9425C9.44881 16.8266 9.37879 16.6689 9.37175 16.5021C9.33744 16.1655 9.66546 15.8289 10.0045 15.8261C10.1672 15.832 10.322 15.8988 10.4389 16.0136C10.5558 16.1285 10.6265 16.2832 10.6373 16.4478C10.6469 16.8039 10.3394 17.1586 10.0045 17.1293L10.0086 17.1252ZM10.1061 8.78025C10.0208 8.78138 9.93619 8.76515 9.85724 8.73252C9.77829 8.6999 9.70659 8.65154 9.64643 8.59032C9.58627 8.5291 9.53886 8.45625 9.507 8.37611C9.47513 8.29597 9.45948 8.21017 9.46095 8.12378C9.45916 8.04113 9.47419 7.95899 9.50509 7.88248C9.53598 7.80596 9.58211 7.73672 9.64057 7.67905C9.69902 7.62138 9.76857 7.57652 9.84488 7.54728C9.92119 7.51803 10.0026 7.50501 10.0841 7.50904C10.1691 7.50563 10.2538 7.51979 10.3332 7.55066C10.4125 7.58153 10.4849 7.62846 10.5457 7.68859C10.6066 7.74872 10.6548 7.82078 10.6873 7.90038C10.7197 7.97999 10.7359 8.06546 10.7347 8.1516C10.7234 8.31657 10.6528 8.4716 10.5361 8.58724C10.4195 8.70288 10.265 8.77107 10.102 8.77886L10.1061 8.78025ZM12.1471 14.751C11.8122 14.7886 11.48 14.4437 11.4965 14.0946C11.5143 13.7051 11.7532 13.4951 12.1128 13.4534C12.4724 13.4117 12.7579 13.7455 12.7537 14.2017C12.7359 14.5076 12.5012 14.7051 12.1471 14.751ZM12.773 10.7497C12.7126 11.1363 12.46 11.2976 12.0867 11.306C11.7271 11.2281 11.5074 11.0181 11.5129 10.6328C11.526 10.4604 11.6051 10.3 11.7333 10.1859C11.8616 10.0717 12.0288 10.013 12.1992 10.0223C12.2839 10.0317 12.3658 10.0581 12.4403 10.0999C12.5148 10.1417 12.5804 10.1981 12.6332 10.2657C12.6861 10.3334 12.7252 10.411 12.7482 10.4941C12.7713 10.5771 12.7778 10.664 12.7675 10.7497H12.773Z" fill="white"/>
<path d="M23.4187 21.0584C23.1854 21.0125 22.974 20.9346 22.985 20.5953C22.9946 20.2962 22.9314 20.0139 23.3103 19.8999C23.722 19.7719 23.6013 19.4826 23.5175 19.1905C23.4338 18.8985 23.361 18.6106 22.9534 18.7218C22.5636 18.8707 22.4744 18.5647 22.3055 18.3227C22.1367 18.0807 22.1971 17.9054 22.3755 17.7441C22.7105 17.4423 22.5128 17.2211 22.3042 16.9666C22.0955 16.7121 21.8718 16.5243 21.552 16.815C21.2871 17.0556 21.11 16.8526 20.8904 16.7107C20.6461 16.5522 20.5596 16.3769 20.6749 16.1127C20.8383 15.7399 20.6379 15.5925 20.3318 15.4618C20.0257 15.331 19.7581 15.1558 19.5728 15.5828C19.3436 16.114 18.9167 15.7135 18.5914 15.783C18.4116 15.822 18.4733 15.5049 18.4637 15.3574C18.4363 14.9166 18.1522 14.9068 17.8255 14.8776C17.4769 14.847 17.2545 14.9374 17.2476 15.3171C17.2408 15.6968 16.9471 15.6898 16.6904 15.7733C16.4337 15.8567 16.258 15.7733 16.1537 15.5466C15.9807 15.1627 15.7419 15.2142 15.4125 15.3505C15.0831 15.4868 14.8635 15.6286 15.0076 16.0222C15.116 16.3004 15.0227 16.4395 14.7811 16.5981C14.5395 16.7566 14.3474 16.9152 14.0798 16.6579C13.7613 16.3505 13.5513 16.58 13.3331 16.822C13.1148 17.064 12.9295 17.2531 13.2356 17.5494C13.4497 17.7566 13.4401 17.9583 13.2672 18.2211C13.0942 18.484 12.968 18.6509 12.6331 18.5327C12.2336 18.3936 12.1458 18.6996 12.0552 18.9847C11.9646 19.2698 11.8081 19.5508 12.2336 19.6899C12.6001 19.8081 12.548 20.0821 12.5411 20.3853C12.5411 20.7191 12.3489 20.8025 12.106 20.8442C11.7985 20.904 11.6585 21.0598 11.7423 21.3839C11.815 21.662 11.6722 22.0862 12.2034 22.0612C12.4862 22.0487 12.6523 22.1808 12.7305 22.4882C12.8087 22.7956 12.8417 23.007 12.5452 23.1836C12.1856 23.3964 12.3283 23.6495 12.4821 23.9235C12.6358 24.1975 12.7703 24.4492 13.1409 24.2559C13.4154 24.1168 13.5993 24.2017 13.7846 24.4437C13.9507 24.6606 14.1017 24.8331 13.8944 25.1029C13.6199 25.459 13.8711 25.6467 14.1305 25.8442C14.3899 26.0417 14.5999 26.2045 14.858 25.8679C15.0694 25.5897 15.3 25.6718 15.5745 25.7955C15.849 25.9193 15.9725 26.0487 15.9094 26.3338C15.8215 26.726 16.0466 26.8373 16.3651 26.8999C16.6835 26.9624 16.9772 27.0723 17.0857 26.6217C17.168 26.2754 17.4178 26.2754 17.7102 26.2643C18.0025 26.2531 18.1535 26.3783 18.2194 26.6412C18.3045 26.9889 18.5118 27.0473 18.8316 26.9666C19.1514 26.8859 19.5055 26.872 19.4108 26.3894C19.3435 26.0445 19.5755 25.9722 19.8157 25.8512C20.0902 25.7121 20.2837 25.7024 20.469 25.9666C20.6804 26.2698 20.9137 26.1975 21.1553 25.9972C21.3969 25.7969 21.7332 25.6732 21.4655 25.2768C21.2473 24.9513 21.4655 24.7691 21.6412 24.5299C21.8375 24.2629 22.0406 24.3032 22.2575 24.4242C22.6391 24.6384 22.7626 24.3672 22.9163 24.1085C23.0701 23.8498 23.2526 23.6064 22.8916 23.3727C22.6459 23.2142 22.5705 23.0292 22.6926 22.7288C22.8038 22.4506 22.8999 22.2281 23.2416 22.2559C23.5491 22.2823 23.7234 22.1697 23.7069 21.8234C23.7014 21.5327 23.9513 21.1599 23.4187 21.0584ZM17.7912 23.2712C17.1877 23.2648 16.6106 23.0198 16.1827 22.5886C15.7548 22.1574 15.51 21.5739 15.5003 20.9624C15.5079 20.3599 15.7491 19.7845 16.1718 19.3605C16.5945 18.9366 17.1649 18.6982 17.7596 18.6968C18.0584 18.6886 18.3558 18.7421 18.6337 18.8539C18.9116 18.9657 19.1641 19.1335 19.376 19.3472C19.5879 19.5609 19.7548 19.816 19.8665 20.097C19.9781 20.378 20.0323 20.6791 20.0257 20.9819C20.0243 21.5841 19.7894 22.1616 19.3716 22.5898C18.9539 23.0181 18.3867 23.2628 17.7925 23.2712H17.7912Z" fill="white"/>
<path d="M27.4198 13.0501C25.8762 9.05377 24.3402 5.05609 22.8121 1.05702C22.7133 0.799721 22.5884 0.677328 22.2933 0.691236C21.7305 0.719052 21.1664 0.71488 20.6037 0.691236C20.3154 0.6815 20.1919 0.789987 20.0876 1.05981C19.5674 2.46175 19.0252 3.85674 18.4913 5.25452C17.503 7.84144 16.5189 10.4298 15.5211 13.0139C15.392 13.3463 15.4085 13.4784 15.8051 13.4604C16.3542 13.4367 16.8964 13.4464 17.4426 13.4604C17.543 13.4765 17.6456 13.4531 17.7293 13.3949C17.8131 13.3366 17.8716 13.2481 17.8929 13.1474C18.0974 12.5452 18.3417 11.9569 18.5489 11.3547C18.6477 11.0765 18.7932 10.9513 19.1062 10.9611C19.8734 10.9861 20.6421 10.9694 21.4107 10.9694C22.1794 10.9694 22.9823 10.9917 23.766 10.9597C24.127 10.9444 24.2849 11.0876 24.3947 11.4047C24.5923 11.9722 24.8271 12.5285 25.0288 13.0946C25.1208 13.356 25.2539 13.4771 25.549 13.4631C26.0761 13.4381 26.6073 13.4437 27.1357 13.4631C27.4692 13.4715 27.5516 13.3922 27.4198 13.0501ZM23.1772 9.08623C22.0366 9.07232 20.896 9.07928 19.754 9.08623C19.5152 9.08623 19.3423 9.07649 19.4658 8.74548C20.1137 6.93741 20.7478 5.12934 21.3874 3.31293H21.5123C21.7964 4.09736 22.0833 4.88178 22.3619 5.66898C22.716 6.67177 23.0578 7.68011 23.4174 8.6815C23.5108 8.94298 23.5396 9.0904 23.1772 9.08623Z" fill="white"/>
<path d="M86.9796 5.46871C86.9796 4.21697 86.9796 4.21697 85.7704 4.21697C84.7547 4.21697 84.7547 4.21697 84.7204 5.26426C84.7204 5.30876 84.7314 5.37552 84.6518 5.3783C82.9388 3.30459 79.587 3.73713 78.1787 5.60779C77.207 6.89847 76.9297 8.35466 77.2413 9.91933C77.5899 11.6648 78.5219 12.9903 80.2815 13.4757C81.9286 13.9305 83.4713 13.7538 84.6737 12.2531C84.7931 12.6704 84.5365 13.1864 84.8261 13.3867C85.0896 13.5647 85.5508 13.4465 85.9241 13.4562C86.0942 13.4464 86.2647 13.4464 86.4347 13.4562C86.8547 13.5146 86.9837 13.3616 86.9837 12.9207C86.9686 10.4395 86.9796 7.9541 86.9796 5.46871ZM82.0974 11.7844C80.545 11.7914 79.4072 10.5744 79.3934 8.89291C79.3797 7.14325 80.4284 5.96106 82.0013 5.95549C83.6662 5.94854 84.7835 7.12378 84.8028 8.90264C84.822 10.5619 83.68 11.7844 82.0974 11.7844Z" fill="white"/>
<path d="M54.6845 8.69124C54.6213 7.78442 54.4457 6.91655 53.9557 6.13908C52.9166 4.49096 50.9264 3.72462 48.7399 4.12517C45.3826 4.73991 43.7231 8.75939 45.69 11.5744C47.0351 13.4993 48.9979 13.8331 51.1501 13.6147C51.7705 13.5508 52.2262 13.2879 52.5378 12.7204C52.7878 12.2885 53.07 11.8766 53.3819 11.4882C53.5782 11.2337 53.5041 11.0876 53.3091 10.8804C53.1142 10.6732 52.9468 10.6676 52.7162 10.854C51.7417 11.6398 50.6368 11.8957 49.4042 11.6885C48.3061 11.5035 47.3948 10.6787 47.1601 9.63143C47.0818 9.28094 47.145 9.17246 47.5073 9.17802C48.6342 9.19471 49.7611 9.18498 50.8866 9.18498C52.0121 9.18498 53.106 9.1669 54.2151 9.19332C54.6104 9.20306 54.7119 9.07649 54.6845 8.69124ZM51.9531 7.64951C51.2393 7.6203 50.5242 7.64117 49.8105 7.64117C49.0967 7.64117 48.3473 7.64117 47.6144 7.64117C47.3398 7.64117 47.2246 7.58971 47.3728 7.29207C47.8834 6.26287 48.755 5.86231 49.8338 5.85814C50.8633 5.85814 51.7417 6.16551 52.2358 7.1822C52.3964 7.51321 52.384 7.66759 51.9517 7.64951H51.9531Z" fill="white"/>
<path d="M11.7574 23.7455C11.4637 23.548 11.4706 23.267 11.778 23.1127C11.8639 23.0824 11.9354 23.0206 11.9783 22.9394C12.0213 22.8583 12.0326 22.7637 12.01 22.6745C11.9894 22.4437 11.8727 22.3727 11.6504 22.3338C11.3196 22.2754 11.2592 22.0139 11.4445 21.7775C11.5817 21.6022 11.6366 21.4993 11.5145 21.2879C11.3923 21.0765 11.2482 21.0556 11.0135 21.1001C10.9568 21.1178 10.8964 21.1192 10.839 21.1043C10.7816 21.0893 10.7294 21.0585 10.6882 21.0153C10.6469 20.9721 10.6183 20.9181 10.6055 20.8595C10.5927 20.8008 10.5961 20.7397 10.6155 20.6829C10.6882 20.4311 10.647 20.3185 10.4507 20.1739C10.2545 20.0292 10.1364 20.1293 9.95938 20.2198C9.70683 20.3491 9.3829 20.4465 9.36917 19.9583C9.36917 19.7761 9.31975 19.6593 9.11935 19.6467C8.95602 19.6356 8.7927 19.5522 8.68701 19.7858C8.50446 20.1808 8.25464 20.2031 8.02267 19.8331C7.98404 19.7567 7.91784 19.6983 7.83783 19.6701C7.75783 19.6419 7.67019 19.6459 7.59308 19.6815C7.42288 19.7274 7.29798 19.7747 7.28974 20.0125C7.27739 20.4145 7.0152 20.5104 6.70912 20.3101C6.52931 20.1933 6.42226 20.1864 6.27402 20.3254C6.14775 20.4437 5.99951 20.5243 6.10245 20.7427C6.3001 21.185 6.00638 21.2559 5.72774 21.3143C5.44088 21.1586 5.37775 21.3435 5.2954 21.4937C5.21304 21.6439 5.15814 21.7719 5.32696 21.9346C5.57952 22.1864 5.58637 22.4645 5.17734 22.5647C5.13558 22.5685 5.09499 22.5807 5.05788 22.6004C5.02077 22.6202 4.98788 22.6472 4.9611 22.6799C4.93432 22.7126 4.91418 22.7504 4.90182 22.791C4.88947 22.8316 4.88516 22.8742 4.88912 22.9165C4.88912 23.0904 4.87812 23.2406 5.10047 23.3241C5.53283 23.4854 5.49029 23.758 5.1746 24C4.98106 24.1474 5.03734 24.2782 5.10322 24.4478C5.1691 24.6175 5.20754 24.726 5.42029 24.7051C5.86637 24.6592 5.97892 24.8999 5.78813 25.2615C5.6797 25.4701 5.75383 25.5772 5.87324 25.7065C5.99266 25.8359 6.10108 25.9152 6.31109 25.8095C6.64462 25.6426 6.88345 25.8095 6.86011 26.1919C6.84639 26.4353 6.97129 26.4868 7.13463 26.5549C7.29796 26.6231 7.40913 26.6467 7.53541 26.484C7.836 26.1127 8.08443 26.2058 8.22169 26.6231C8.29169 26.847 8.44956 26.7858 8.59094 26.7955C8.73231 26.8053 8.88601 26.7955 8.93954 26.5869C9.05209 26.146 9.30329 26.0918 9.608 26.4061C9.65734 26.4663 9.72775 26.5049 9.8045 26.5137C9.88124 26.5225 9.95838 26.5009 10.0198 26.4534C10.1735 26.3769 10.3163 26.306 10.2737 26.0709C10.1927 25.6328 10.3972 25.4826 10.7898 25.6537C11.0012 25.7441 11.0959 25.6537 11.2153 25.5146C11.3347 25.3755 11.391 25.2601 11.2674 25.0681C11.0506 24.733 11.2043 24.5118 11.5639 24.4798C11.6482 24.4827 11.7306 24.4539 11.7952 24.399C11.8598 24.344 11.9021 24.2668 11.9139 24.1822C11.9469 24.0014 11.9427 23.8679 11.7574 23.7455ZM8.49345 24.5355C8.14131 24.5405 7.80108 24.4064 7.54486 24.1616C7.28863 23.9167 7.13655 23.5804 7.12089 23.2239C7.09618 22.5063 7.76052 21.8206 8.47425 21.8261C8.82545 21.8376 9.15914 21.9842 9.40747 22.2361C9.65581 22.488 9.80015 22.8263 9.81113 23.1822C9.80939 23.5372 9.67047 23.8774 9.42416 24.1298C9.17785 24.3822 8.84374 24.5269 8.49345 24.5327V24.5355Z" fill="white"/>
<path d="M58.0034 10.9805L57.1236 12.3644C56.3449 13.6987 55.5342 15.0121 54.6914 16.3046C54.6324 16.3964 54.6104 16.5369 54.4169 16.5522C54.4594 16.3839 54.491 16.2281 54.5377 16.0751C54.9014 14.8734 55.2651 13.6718 55.6357 12.4715C55.924 11.5452 55.6357 10.8873 54.7504 10.4854C54.5514 10.395 54.4251 10.3783 54.259 10.6245C53.0347 12.4534 51.8255 14.2935 50.4447 16.007C49.5704 17.0918 48.6795 18.1627 47.5211 18.9583C47.0805 19.2601 46.6221 19.5229 46.058 19.4868C45.9042 19.4771 45.6791 19.331 45.6091 19.5466C45.5391 19.7622 45.7354 19.936 45.9166 20.0306C46.2036 20.1873 46.5259 20.2655 46.8518 20.2575C47.1777 20.2494 47.4959 20.1554 47.775 19.9847C48.2925 19.6823 48.7675 19.3109 49.1874 18.8804C50.8606 17.2295 52.17 15.2921 53.4424 13.3268C53.522 13.2031 53.5632 13.0278 53.7841 12.9485C53.7498 13.1196 53.7347 13.2378 53.7018 13.3505C53.1354 15.2281 52.5671 17.1052 51.9971 18.9819C51.8982 19.306 51.8529 19.6287 52.0369 19.9332C52.2441 20.274 52.5626 20.3992 52.9524 20.3908C53.0545 20.3997 53.1566 20.3734 53.242 20.3161C53.3275 20.2587 53.3913 20.1738 53.4231 20.0751C54.1877 18.0584 55.482 16.3588 56.6102 14.5522C56.6542 14.4826 56.6912 14.3964 56.812 14.4047C56.93 14.6356 56.7709 14.8317 56.7036 15.025C56.2616 16.2921 55.7785 17.5438 55.364 18.8178C55.121 19.5647 55.6604 20.267 56.4126 20.3032C56.7873 20.3213 56.9904 20.1975 56.9877 19.7816C57.0039 19.2989 57.0791 18.8201 57.2114 18.3561C57.6877 16.3936 58.433 14.5229 59.0987 12.6259C59.3307 11.9541 58.713 11.1015 58.0034 10.9805Z" fill="white"/>
<path d="M61.863 4.7733C61.863 4.09736 61.7902 4.02086 61.1095 4.02086C60.9393 4.02291 60.77 4.0439 60.6044 4.08345C59.6943 4.28512 59.0945 4.86648 58.6828 5.70375C58.6474 5.33634 58.6378 4.96685 58.6539 4.59805C58.6704 4.29763 58.5524 4.20445 58.2669 4.21697C57.8404 4.24479 57.4127 4.24479 56.9863 4.21697C56.5553 4.18081 56.4043 4.29207 56.4084 4.7733C56.4359 7.36161 56.4208 9.95132 56.4263 12.541C56.4263 12.6537 56.3755 12.7872 56.4468 12.9026L57.9182 10.3602L57.9278 10.3435C58.0582 10.1377 58.2147 10.2128 58.6759 10.2698C58.6759 9.76634 58.658 9.26565 58.6759 8.76773C58.7637 6.79555 60.0484 5.87621 61.513 6.29763C61.7751 6.37274 61.8808 6.31711 61.8657 6.01947C61.8479 5.60222 61.8644 5.18637 61.863 4.7733Z" fill="white"/>
</g>
<defs>
<clipPath id="clip0_2_32">
<rect width="114" height="27" fill="white"/>
</clipPath>
</defs>
</svg>
