<svg width="99" height="26" viewBox="0 0 99 26" fill="none" xmlns="http://www.w3.org/2000/svg">
<path d="M38.8397 2.35234C38.0888 1.54119 37.0366 1.04403 35.6805 1.04403C32.8317 1.04403 31.1279 3.31656 31.1279 5.90701C31.1279 8.49746 32.833 10.7752 35.6805 10.7752C36.7519 10.7769 37.8063 10.5033 38.7456 9.97977V6.21446H36.1016V5.16782H39.8725V10.6797C38.5934 11.4162 37.1507 11.8097 35.6805 11.8232C32.3784 11.8232 29.9083 9.32823 29.9083 5.91224C29.9083 2.49625 32.3784 0 35.6805 0C37.432 0 38.6993 0.508932 39.6845 1.50979L38.8397 2.35234Z" fill="#8A8C8E"/>
<path d="M43.9576 11.538H42.8307V0.28652H46.241C48.4935 0.28652 49.887 1.27168 49.887 3.29563C49.887 4.85382 48.8696 6.04307 47.0537 6.204L50.245 11.5445H48.8696L45.8405 6.30866H43.9576V11.538ZM43.9576 5.25809H45.959C47.9771 5.25809 48.6635 4.36844 48.6635 3.28647C48.6635 2.2045 47.9745 1.33186 45.959 1.33186H43.9576V5.25809Z" fill="#8A8C8E"/>
<path d="M60.0251 7.34222C60.0251 9.21703 59.2897 11.8232 55.9735 11.8232C52.6572 11.8232 51.9205 9.21703 51.9205 7.34222V0.28652H53.0526V7.22055C53.0526 10.4625 55.1338 10.7805 55.9786 10.7805C56.8235 10.7805 58.9034 10.4625 58.9034 7.22055V0.28652H60.0303L60.0251 7.34222Z" fill="#8A8C8E"/>
<path d="M62.8404 0.28652H66.0601C68.3126 0.28652 69.7047 1.27168 69.7047 3.29563C69.7047 5.31958 68.3177 6.30866 66.0601 6.30866H63.9686V11.5419H62.8404V0.28652ZM63.9673 5.25809H65.7819C67.8 5.25809 68.4864 4.36844 68.4864 3.28647C68.4864 2.2045 67.7987 1.33186 65.7819 1.33186H63.9686L63.9673 5.25809Z" fill="#8A8C8E"/>
<path d="M76.8448 11.8232C73.5439 11.8232 71.0725 9.32823 71.0725 5.91224C71.0725 2.49625 73.5439 0 76.8448 0C80.1456 0 82.617 2.49494 82.617 5.91224C82.617 9.32954 80.1456 11.8232 76.8448 11.8232ZM76.8448 1.04926C73.9973 1.04926 72.2921 3.32049 72.2921 5.91224C72.2921 8.504 73.9973 10.7752 76.8448 10.7752C79.6922 10.7752 81.3974 8.50269 81.3974 5.91224C81.3974 3.32179 79.6922 1.04926 76.8448 1.04926Z" fill="#8A8C8E"/>
<path d="M31.2219 25.7135H29.907L34.7249 14.462H35.8209L40.6375 25.7135H39.3252L38.1043 22.758H32.4467L31.2219 25.7135ZM32.8639 21.7088H37.6664L35.2723 15.7913L32.8639 21.7088Z" fill="#8A8C8E"/>
<path d="M47.6023 23.6163L51.341 14.4633H53.0616V25.7148H51.936V15.9888H51.9038L47.8998 25.7148H47.3048L43.3008 15.9888H43.2686V25.7148H42.1417V14.4633H43.8636L47.6023 23.6163Z" fill="#8A8C8E"/>
<path d="M57.1931 24.6655H63.1173V25.7122H56.0675V14.4607H62.9357V15.5074H57.1931V19.3368H62.5597V20.3834H57.1931V24.6655ZM60.87 13.9701H59.9466L61.2834 12.6042H62.7L60.87 13.9701Z" fill="#8A8C8E"/>
<path d="M66.4722 25.7148H65.3466V14.4633H68.7556C71.0081 14.4633 72.4016 15.4485 72.4016 17.4725C72.4016 19.0306 71.3842 20.2199 69.5683 20.3808L72.757 25.7148H71.3842L68.3499 20.4816H66.4722V25.7148ZM66.4722 19.4349H68.4749C70.4917 19.4349 71.1794 18.544 71.1794 17.4633C71.1794 16.3826 70.4891 15.5087 68.4749 15.5087H66.4722V19.4349Z" fill="#8A8C8E"/>
<path d="M75.75 14.4633H74.6245V25.7161H75.75V14.4633Z" fill="#8A8C8E"/>
<path d="M87.8754 23.9342C87.14 25.0933 85.6062 25.9961 83.7761 25.9961C80.4753 25.9961 78.0038 23.5011 78.0038 20.0838C78.0038 16.6665 80.4753 14.1729 83.7761 14.1729C85.1528 14.1729 86.639 14.6962 87.6088 15.9522L86.6236 16.7071C86.1857 15.9757 84.9493 15.2287 83.7761 15.2287C80.9299 15.2287 79.2235 17.5025 79.2235 20.0917C79.2235 22.6808 80.9299 24.9494 83.7761 24.9494C84.9352 24.9494 86.1226 24.5687 86.952 23.2656L87.8754 23.9342Z" fill="#8A8C8E"/>
<path d="M89.5818 25.7135H88.2682L93.0861 14.462H94.1808L98.9987 25.7135H97.6851L96.4642 22.758H90.7976L89.5818 25.7135ZM91.2239 21.7088H96.0263L93.6335 15.7913L91.2239 21.7088Z" fill="#8A8C8E"/>
<path d="M13.56 13.0242H19.0244L16.3006 6.29819L13.56 13.0242Z" fill="#85171D"/>
<path d="M27.7485 11.4948L21.917 1.23504C21.7091 0.868747 21.4099 0.564531 21.0496 0.353005C20.6892 0.141479 20.2803 0.030106 19.8641 0.0300913H8.20244C7.78616 0.0297068 7.37715 0.140912 7.01671 0.352478C6.65626 0.564043 6.35715 0.868478 6.14958 1.23504L0.318094 11.4948C0.109871 11.8609 0.000244141 12.2763 0.000244141 12.6991C0.000244141 13.1219 0.109871 13.5373 0.318094 13.9034L6.14958 24.1644C6.35715 24.531 6.65626 24.8354 7.01671 25.047C7.37715 25.2586 7.78616 25.3698 8.20244 25.3694H19.8641C20.2803 25.3694 20.6892 25.258 21.0496 25.0465C21.4099 24.835 21.7091 24.5307 21.917 24.1644L27.7485 13.9047C27.9569 13.5384 28.0667 13.1228 28.0667 12.6997C28.0667 12.2767 27.9569 11.8611 27.7485 11.4948ZM20.9099 17.581L19.5215 14.2213H16.9922V19.3237C15.5871 20.1741 13.7532 20.632 12.227 20.632C8.47032 20.632 5.6589 17.793 5.6589 13.906C5.6589 10.019 8.47032 7.1813 12.227 7.1813C13.0015 7.16984 13.7731 7.27792 14.5156 7.50184L15.6747 4.79233H16.9213L22.4012 17.581H20.9099Z" fill="#85171D"/>
<path d="M11.6913 17.581H10.1961L14.0185 8.65315C13.4419 8.45359 12.8362 8.35494 12.2271 8.3614C8.98678 8.3614 7.04724 10.9466 7.04724 13.8929C7.04724 16.8392 8.98806 19.4258 12.2271 19.4258C13.446 19.4275 14.6456 19.1165 15.7146 18.5217V14.237H13.0719L11.6913 17.581Z" fill="#85171D"/>
</svg>
