<svg width="79" height="59" viewBox="0 0 79 59" fill="none" xmlns="http://www.w3.org/2000/svg">
<g clip-path="url(#clip0_2_108)">
<path d="M0.233004 56.2753L6.55099 41.9876C6.99295 41.0016 7.7945 40.4039 8.88333 40.4039H9.11636C10.2052 40.4039 10.9826 41.0076 11.4226 41.9876L17.7426 56.2753C17.8659 56.5262 17.9344 56.8007 17.9435 57.0802C17.9469 57.3311 17.9006 57.5801 17.8071 57.8129C17.7137 58.0457 17.575 58.2575 17.3991 58.4362C17.2232 58.6148 17.0137 58.7566 16.7826 58.8534C16.5515 58.9502 16.3036 59 16.0531 59C15.121 59 14.4982 58.4547 14.1366 57.6236L12.9192 54.7721H4.94588L3.67626 57.7644C3.53207 58.1342 3.27906 58.4514 2.95077 58.6739C2.62249 58.8964 2.23445 59.0136 1.83811 59.0101C1.59444 59.0104 1.35314 58.9621 1.12828 58.868C0.903424 58.7739 0.699509 58.636 0.528422 58.4621C0.357335 58.2883 0.222497 58.0821 0.13177 57.8556C0.0410418 57.629 -0.00376137 57.3867 -2.86945e-05 57.1426C0.0154988 56.8402 0.0949269 56.5446 0.233004 56.2753ZM11.4487 51.2444L8.93556 45.2496L6.42243 51.2424L11.4487 51.2444Z" fill="white"/>
<path d="M21.0834 42.5772C21.0813 42.3142 21.1314 42.0534 21.2309 41.81C21.3304 41.5666 21.4773 41.3455 21.6629 41.1595C21.8486 40.9735 22.0693 40.8264 22.3123 40.7267C22.5553 40.6271 22.8157 40.5768 23.0783 40.579H23.5162C23.8828 40.5738 24.2441 40.6675 24.5622 40.8501C24.8802 41.0328 25.1434 41.2978 25.3242 41.6173L30.1456 49.4776L34.989 41.5892C35.1644 41.2722 35.4243 41.0103 35.7396 40.8326C36.055 40.6549 36.4134 40.5685 36.7749 40.583H37.2149C37.4775 40.5809 37.7378 40.6311 37.9808 40.7307C38.2238 40.8304 38.4446 40.9775 38.6302 41.1635C38.8159 41.3495 38.9627 41.5706 39.0622 41.814C39.1617 42.0574 39.2119 42.3183 39.2097 42.5813V57.0058C39.2097 57.532 39.001 58.0367 38.6296 58.4088C38.2581 58.7809 37.7543 58.9899 37.229 58.9899C36.7036 58.9899 36.1998 58.7809 35.8283 58.4088C35.4569 58.0367 35.2482 57.532 35.2482 57.0058V47.9502L31.7527 53.3373C31.3389 53.9611 30.8206 54.3434 30.0953 54.3434C29.3701 54.3434 28.8518 53.955 28.438 53.3373L24.9927 48.0247V57.0541C24.9928 57.3117 24.9417 57.5667 24.8426 57.8044C24.7435 58.042 24.5982 58.2576 24.4153 58.4387C24.2323 58.6197 24.0153 58.7625 23.7768 58.8589C23.5384 58.9552 23.2832 59.0032 23.026 59C22.7702 59.0027 22.5164 58.9542 22.2795 58.8574C22.0426 58.7605 21.8273 58.6173 21.6464 58.4361C21.4655 58.2548 21.3225 58.0392 21.2258 57.8019C21.1291 57.5646 21.0807 57.3104 21.0834 57.0541V42.5772Z" fill="white"/>
<path d="M43.567 42.6718C43.5646 42.4089 43.6145 42.1481 43.7138 41.9047C43.8131 41.6613 43.9597 41.4402 44.1452 41.2542C44.3307 41.0682 44.5514 40.921 44.7943 40.8213C45.0371 40.7216 45.2974 40.6714 45.5599 40.6736H50.9839C55.3091 40.6736 57.9247 43.2413 57.9247 46.9521V47.0044C57.9247 51.2082 54.6622 53.3876 50.5962 53.3876H47.5547V56.9937C47.5632 57.2613 47.5179 57.5279 47.4215 57.7776C47.3251 58.0274 47.1796 58.2552 46.9936 58.4475C46.8077 58.6398 46.585 58.7927 46.3389 58.8971C46.0927 59.0015 45.8282 59.0554 45.5609 59.0554C45.2936 59.0554 45.029 59.0015 44.7829 58.8971C44.5368 58.7927 44.3141 58.6398 44.1281 58.4475C43.9421 58.2552 43.7966 58.0274 43.7002 57.7776C43.6039 57.5279 43.5586 57.2613 43.567 56.9937V42.6718ZM50.7147 49.8338C52.7096 49.8338 53.8747 48.6404 53.8747 47.0829V47.0306C53.8747 45.2416 52.6312 44.2817 50.6364 44.2817H47.5547V49.8338H50.7147Z" fill="white"/>
<path d="M60.8676 42.5772C60.8655 42.3142 60.9156 42.0534 61.0151 41.81C61.1146 41.5666 61.2615 41.3455 61.4471 41.1595C61.6328 40.9735 61.8536 40.8264 62.0966 40.7267C62.3396 40.6271 62.5999 40.5768 62.8625 40.579H63.3024C63.669 40.5742 64.0301 40.6681 64.3481 40.8507C64.6661 41.0333 64.9293 41.2981 65.1104 41.6173L69.9318 49.4776L74.7753 41.5892C74.9512 41.2722 75.2114 41.0103 75.5271 40.8327C75.8427 40.655 76.2014 40.5686 76.5632 40.583H77.0031C77.2657 40.5809 77.5261 40.6311 77.769 40.7307C78.012 40.8304 78.2328 40.9775 78.4185 41.1635C78.6041 41.3495 78.751 41.5706 78.8505 41.814C78.95 42.0574 79.0001 42.3182 78.998 42.5813V57.0058C79.0064 57.2718 78.9614 57.5368 78.8656 57.785C78.7698 58.0333 78.6252 58.2597 78.4404 58.4509C78.2555 58.6421 78.0342 58.7941 77.7895 58.8979C77.5449 59.0017 77.2819 59.0552 77.0162 59.0552C76.7505 59.0552 76.4875 59.0017 76.2429 58.8979C75.9982 58.7941 75.7769 58.6421 75.592 58.4509C75.4072 58.2597 75.2625 58.0333 75.1667 57.785C75.071 57.5368 75.026 57.2718 75.0344 57.0058V47.9502L71.5389 53.3373C71.1251 53.9611 70.6068 54.3434 69.8816 54.3434C69.1564 54.3434 68.6401 53.955 68.2242 53.3373L64.779 48.0247V57.0541C64.7787 57.3117 64.7274 57.5668 64.6281 57.8045C64.5287 58.0422 64.3833 58.2578 64.2002 58.4388C64.0171 58.6198 63.8 58.7626 63.5614 58.8589C63.3228 58.9552 63.0675 59.0032 62.8102 59C62.5545 59.0024 62.3008 58.9537 62.064 58.8568C61.8272 58.7599 61.6121 58.6166 61.4312 58.4354C61.2504 58.2543 61.1074 58.0388 61.0106 57.8016C60.9138 57.5644 60.8652 57.3103 60.8676 57.0541V42.5772Z" fill="white"/>
<path d="M56.1246 33.3506L59.4755 27.2914L47.641 6.70313L44.0953 12.8508L56.1246 33.3506Z" fill="white"/>
<path d="M19.5265 27.7281L22.4655 33.8799L50.8955 33.9503L47.5085 27.7462L19.5265 27.7281Z" fill="white"/>
<path d="M29.3299 20.7735H22.7448L34.754 0L41.5963 0.0684198L29.3299 20.7735Z" fill="white"/>
</g>
<defs>
<clipPath id="clip0_2_108">
<rect width="79" height="59" fill="white"/>
</clipPath>
</defs>
</svg>
