<svg width="9" height="9" viewBox="0 0 9 9" fill="none" xmlns="http://www.w3.org/2000/svg">
<g clip-path="url(#clip0_2_207)">
<path d="M8.99886 7.16676L8.9967 7.15619C8.9967 7.15331 8.99526 7.15018 8.99478 7.1473C8.98976 7.05497 8.96274 6.96518 8.91597 6.88545C8.8692 6.80572 8.80404 6.73835 8.72594 6.68899C8.59992 6.60584 8.4727 6.52077 8.34956 6.43761C8.22642 6.35446 8.10952 6.27659 7.9895 6.19729C7.64433 5.96898 7.29819 5.74235 6.96334 5.52293C6.86859 5.46124 6.75782 5.42881 6.64481 5.42968C6.49694 5.42968 6.3474 5.47126 6.18873 5.55874C5.99526 5.6652 5.80011 5.77503 5.6112 5.88246L5.46718 5.96441C5.45446 5.97162 5.44029 5.97955 5.43165 5.98388C5.42325 5.97883 5.41005 5.96946 5.39757 5.96104C5.168 5.79592 4.94935 5.6161 4.74298 5.42271C4.30501 5.0235 3.88737 4.60248 3.49166 4.16124C3.31986 3.97417 3.16068 3.77586 3.01519 3.56763C3.1352 3.35903 3.25714 3.14177 3.39061 2.90433C3.45361 2.79848 3.50389 2.68554 3.54039 2.56787C3.60112 2.35278 3.57159 2.15931 3.4523 1.99445C3.43117 1.96513 3.41173 1.93437 3.39109 1.90192C3.37884 1.8827 3.36708 1.86347 3.35412 1.84449L2.97822 1.27659C2.75674 0.942218 2.53535 0.607684 2.31403 0.272988C2.18297 0.0747187 1.9895 -0.0154039 1.73794 0.00238028C1.58083 0.0159975 1.4309 0.0743748 1.30587 0.170609C1.04892 0.360113 0.805121 0.566869 0.576156 0.789451C0.436693 0.923313 0.276588 1.08649 0.144086 1.2826C0.100173 1.3482 0.0630171 1.4181 0.0331886 1.49121C-0.0119386 1.60055 -0.00161692 1.71351 0.00750454 1.81324C0.00750454 1.82478 0.009665 1.83728 0.0106252 1.84785C0.0375681 2.13036 0.100738 2.40822 0.198575 2.67457C0.340198 3.07496 0.54159 3.47294 0.832276 3.9274C1.16233 4.44314 1.56847 4.96561 2.07399 5.52509C2.57772 6.08344 3.11352 6.61194 3.67865 7.10788C4.18537 7.55081 4.65777 7.90889 5.1232 8.20209C5.57495 8.48688 5.9691 8.68275 6.36348 8.81685C6.59149 8.89708 6.82744 8.9526 7.06727 8.98243C7.10328 8.98676 7.13929 8.9906 7.17553 8.99445L7.22354 8.99974H7.38965L7.39685 8.99829C7.48871 8.98098 7.5765 8.94649 7.65561 8.89664C7.78388 8.81302 7.90438 8.71803 8.01567 8.61281C8.31193 8.33159 8.58242 8.02435 8.82388 7.69476C8.92321 7.56487 8.98283 7.40894 8.9955 7.24583V7.24295C8.9955 7.23982 8.99718 7.2367 8.9979 7.23357L8.99958 7.22564V7.17253L8.99886 7.16676ZM7.28619 8.45227C7.05337 8.44313 6.82318 8.39964 6.60304 8.32322C6.33153 8.23146 6.06882 8.11539 5.81811 7.97643C5.33612 7.71399 4.84956 7.37561 4.32988 6.94446C3.54713 6.29027 2.82136 5.57062 2.16041 4.7933C1.72306 4.27972 1.37692 3.79714 1.10208 3.31817C0.881244 2.93365 0.733621 2.59719 0.637605 2.25929C0.589188 2.09506 0.560501 1.92563 0.552152 1.7546L0.550712 1.74283C0.53871 1.68563 0.568234 1.63756 0.618162 1.56499L0.627044 1.55177C0.721139 1.41406 0.840198 1.29558 0.953736 1.18623C1.16469 0.982296 1.38864 0.792278 1.62416 0.617377C1.66834 0.580446 1.72341 0.559081 1.78091 0.556574C1.79708 0.556663 1.81318 0.558598 1.82892 0.562342C1.83631 0.563468 1.84336 0.566204 1.84958 0.570356C1.8558 0.574509 1.86104 0.579976 1.86492 0.586374C2.14961 1.01896 2.43461 1.45051 2.71994 1.88102L3.01086 2.32105C3.01783 2.33163 3.01567 2.34989 3.01086 2.37873L3.00894 2.39219C3.00066 2.45522 2.9802 2.51604 2.94869 2.57123C2.85844 2.73153 2.74946 2.91009 2.64409 3.08289C2.58168 3.18527 2.51711 3.29125 2.45734 3.39219C2.41964 3.45551 2.40224 3.52887 2.40748 3.60239C2.41271 3.67592 2.44034 3.74607 2.48662 3.80339C2.61144 3.95792 2.78139 4.16724 2.8822 4.28837C3.21346 4.68635 3.5884 5.08265 4.06151 5.53543C4.40597 5.86515 4.68033 6.10404 4.95086 6.31024C5.03631 6.37537 5.15753 6.46525 5.26699 6.54432C5.32444 6.58575 5.39332 6.60832 5.46412 6.60892C5.53493 6.60953 5.60418 6.58813 5.66233 6.54768C5.84716 6.41887 6.18801 6.18575 6.39517 6.06847C6.49118 6.01392 6.56943 5.98916 6.64769 5.9882C6.66468 5.98748 6.68146 5.9921 6.69569 6.00142C7.02327 6.21915 7.35132 6.43657 7.67985 6.65367L8.38148 7.1187C8.44533 7.16124 8.45806 7.19656 8.43501 7.26986C8.42557 7.30224 8.41089 7.33284 8.39157 7.36047C8.08528 7.77071 7.80899 8.07544 7.52263 8.31961C7.46063 8.37391 7.39017 8.41767 7.31403 8.44915C7.30493 8.45144 7.29557 8.45249 7.28619 8.45227Z" fill="#494949"/>
<path d="M8.72948 3.28359C8.72948 3.33814 8.72948 3.38332 8.72948 3.42778C8.72635 3.5876 8.61258 3.70584 8.46207 3.70656C8.31157 3.70728 8.19539 3.59193 8.19347 3.43091C8.18555 2.78731 7.99448 2.20524 7.59049 1.70344C7.036 1.0149 6.31013 0.659697 5.42511 0.636385C5.21531 0.630858 5.08905 0.468156 5.15698 0.285268C5.19827 0.175198 5.29428 0.11055 5.42247 0.112713C6.12938 0.123768 6.77484 0.329007 7.34637 0.746455C8.20787 1.37539 8.65002 2.23552 8.72948 3.28359Z" fill="#494949"/>
<path d="M7.54562 3.36986C7.54562 3.54578 7.48753 3.6484 7.36079 3.69238C7.3215 3.70623 7.2795 3.71058 7.23821 3.70507C7.19692 3.69956 7.15752 3.68435 7.12322 3.66068C7.08893 3.63701 7.06071 3.60555 7.04089 3.56887C7.02106 3.53219 7.01018 3.49134 7.00913 3.44965C7.00617 3.25803 6.97271 3.06811 6.91 2.88705C6.67884 2.25643 6.10419 1.85028 5.4028 1.82288C5.27678 1.81807 5.1894 1.75823 5.15316 1.65225C5.13465 1.60081 5.13323 1.54477 5.1491 1.49246C5.16497 1.44015 5.19729 1.39437 5.24125 1.36193C5.29036 1.32814 5.34785 1.3086 5.40736 1.30546C6.42056 1.28935 7.34663 2.06873 7.50841 3.07042C7.5245 3.16967 7.53338 3.26989 7.54562 3.36986Z" fill="#494949"/>
</g>
<defs>
<clipPath id="clip0_2_207">
<rect width="9" height="9" fill="white"/>
</clipPath>
</defs>
</svg>
