<svg width="10" height="7" viewBox="0 0 10 7" fill="none" xmlns="http://www.w3.org/2000/svg">
<g clip-path="url(#clip0_2_8)">
<path d="M9.41906 0.591818V6.40842H0.580936V0.591818H9.41906ZM0 0.473455V6.52679C0 6.65235 0.0489645 6.77278 0.136122 6.86157C0.223279 6.95036 0.34149 7.00024 0.464749 7.00024H9.53525C9.65851 7.00024 9.77672 6.95036 9.86388 6.86157C9.95104 6.77278 10 6.65235 10 6.52679V0.473455C10 0.347887 9.95104 0.227463 9.86388 0.138673C9.77672 0.0498834 9.65851 1.90735e-06 9.53525 1.90735e-06H0.464749C0.34149 1.90735e-06 0.223279 0.0498834 0.136122 0.138673C0.0489645 0.227463 0 0.347887 0 0.473455Z" fill="#494949"/>
<path d="M8.8972 0.591816L5.15806 3.86148C5.12083 3.89411 5.07343 3.91221 5.02432 3.91256C4.97521 3.9129 4.92757 3.89547 4.8899 3.86337C3.66041 2.81444 2.06098 1.44048 1.09616 0.591816H0.213135C0.324055 0.691714 0.457748 0.810788 0.614213 0.949036C0.962775 1.25678 3.82656 3.71874 4.74746 4.50964C4.82677 4.57777 4.92728 4.61495 5.03103 4.61452C5.13478 4.61408 5.23499 4.57607 5.31375 4.50727L9.79114 0.591816H8.8972Z" fill="#494949"/>
<path d="M1.12867 6.40842L3.56628 4.28972L3.11594 3.90362L0.234497 6.40842H1.12867Z" fill="#494949"/>
<path d="M9.76758 6.40818L6.87731 3.88918L6.43115 4.2793L8.8741 6.40818H9.76758Z" fill="#494949"/>
</g>
<defs>
<clipPath id="clip0_2_8">
<rect width="10" height="7" fill="white"/>
</clipPath>
</defs>
</svg>
