<svg width="11" height="11" viewBox="0 0 11 11" fill="none" xmlns="http://www.w3.org/2000/svg">
<path d="M9.625 0H1.375C0.616687 0 0 0.616687 0 1.375V9.625C0 10.3833 0.616687 11 1.375 11H9.625C10.3833 11 11 10.3833 11 9.625V1.375C11 0.616687 10.3833 0 9.625 0Z" fill="#1976D2"/>
<path fill-rule="evenodd" clip-rule="evenodd" d="M9.28125 5.5H7.5625V4.125C7.5625 3.7455 7.8705 3.78125 8.25 3.78125H8.9375V2.0625H7.5625C7.01549 2.0625 6.49089 2.2798 6.10409 2.66659C5.7173 3.05339 5.5 3.57799 5.5 4.125V5.5H4.125V7.21875H5.5V11H7.5625V7.21875H8.59375L9.28125 5.5Z" fill="#FAFAFA"/>
</svg>
