<svg width="8" height="10" viewBox="0 0 8 10" fill="none" xmlns="http://www.w3.org/2000/svg">
<g clip-path="url(#clip0_2_29)">
<path d="M4.04007 0.669424C4.71804 0.669856 5.38082 0.879457 5.94538 1.27197C6.64624 1.75968 7.11044 2.42506 7.29587 3.29129C7.35907 3.60188 7.37626 3.92078 7.34685 4.23682C7.2838 5.00932 7.03483 5.72105 6.68318 6.39596C6.21368 7.29777 5.59695 8.10675 4.86085 8.78633C4.67641 8.95786 4.47734 9.11137 4.26613 9.24494C4.18675 9.2988 4.09455 9.32841 3.99993 9.33043C3.90536 9.32806 3.81325 9.29848 3.73372 9.24494C3.48587 9.08639 3.25388 8.90221 3.04124 8.69517C2.40561 8.08727 1.86147 7.38244 1.42725 6.60453C1.15822 6.13338 0.948557 5.62784 0.803473 5.10048C0.689455 4.67509 0.625427 4.24223 0.642419 3.79959C0.660782 3.23457 0.832642 2.68671 1.13789 2.22009C1.65356 1.4257 2.37461 0.951129 3.26533 0.748992C3.52011 0.693521 3.77984 0.666845 4.04007 0.669424ZM4.04007 -7.49713e-05H4.03613C3.7311 -0.0025379 3.42671 0.0292306 3.12817 0.0946849C2.04906 0.340597 1.20094 0.929242 0.60745 1.84568C0.235853 2.41532 0.0263111 3.08344 0.00312832 3.77255C-0.0153412 4.25536 0.0447463 4.74899 0.187331 5.28099C0.337303 5.84079 0.562385 6.38463 0.875381 6.94315C1.34251 7.77852 1.9271 8.5357 2.60954 9.18932C2.85358 9.42655 3.1199 9.63739 3.40447 9.81865C3.58258 9.93729 3.78937 10.0003 4.00054 10.0003C4.21172 10.0003 4.41851 9.93729 4.59662 9.81865C4.84089 9.66391 5.07126 9.48637 5.28491 9.2882C6.0761 8.55663 6.73942 7.68659 7.24514 6.71706C7.67733 5.88766 7.91915 5.09481 7.98392 4.29425C8.01938 3.91036 7.99779 3.52304 7.91989 3.14606C7.70269 2.13048 7.15649 1.31266 6.2995 0.715517C5.62795 0.247897 4.86947 0.00764999 4.04475 0.000697496L4.04007 -7.49713e-05Z" fill="#494949"/>
<path d="M3.9896 2.40479C4.92736 2.40479 5.68091 3.17909 5.6787 4.14034C5.67648 5.10158 4.92637 5.87254 3.9928 5.87254H3.99059C3.0713 5.87125 2.32119 5.09257 2.32094 4.13905C2.3207 3.18553 3.07179 2.40479 3.9896 2.40479ZM3.9896 1.73529C3.68697 1.73468 3.38719 1.79656 3.10748 1.91737C2.82777 2.03818 2.57362 2.21555 2.35961 2.43929C2.14414 2.6612 1.97312 2.92579 1.85655 3.21759C1.73997 3.50939 1.68018 3.82255 1.68067 4.13879C1.68067 5.46208 2.71693 6.53998 3.9896 6.54178H3.9928C4.60639 6.54448 5.19615 6.29357 5.63363 5.8437C5.84907 5.62283 6.02055 5.35954 6.13816 5.06901C6.25578 4.77848 6.3172 4.46648 6.3189 4.151C6.32059 3.83552 6.26252 3.52282 6.14803 3.23093C6.03354 2.93904 5.86491 2.67375 5.65185 2.45037C5.43394 2.22184 5.17479 2.04086 4.88944 1.91793C4.60408 1.795 4.29822 1.73257 3.9896 1.73426V1.73529Z" fill="#494949"/>
</g>
<defs>
<clipPath id="clip0_2_29">
<rect width="8" height="10" fill="white"/>
</clipPath>
</defs>
</svg>
