<svg width="11" height="11" viewBox="0 0 11 11" fill="none" xmlns="http://www.w3.org/2000/svg">
<g clip-path="url(#clip0_2_49)">
<path d="M7.5625 0H3.4375C2.52582 0 1.65148 0.362164 1.00682 1.00682C0.362164 1.65148 0 2.52582 0 3.4375L0 7.5625C0 8.47418 0.362164 9.34852 1.00682 9.99318C1.65148 10.6378 2.52582 11 3.4375 11H7.5625C8.47418 11 9.34852 10.6378 9.99318 9.99318C10.6378 9.34852 11 8.47418 11 7.5625V3.4375C11 2.52582 10.6378 1.65148 9.99318 1.00682C9.34852 0.362164 8.47418 0 7.5625 0V0ZM9.96875 7.5625C9.96875 8.88937 8.88937 9.96875 7.5625 9.96875H3.4375C2.11063 9.96875 1.03125 8.88937 1.03125 7.5625V3.4375C1.03125 2.11063 2.11063 1.03125 3.4375 1.03125H7.5625C8.88937 1.03125 9.96875 2.11063 9.96875 3.4375V7.5625Z" fill="url(#paint0_linear_2_49)"/>
<path d="M5.5 2.75C4.77065 2.75 4.07118 3.03973 3.55546 3.55546C3.03973 4.07118 2.75 4.77065 2.75 5.5C2.75 6.22935 3.03973 6.92882 3.55546 7.44454C4.07118 7.96027 4.77065 8.25 5.5 8.25C6.22935 8.25 6.92882 7.96027 7.44454 7.44454C7.96027 6.92882 8.25 6.22935 8.25 5.5C8.25 4.77065 7.96027 4.07118 7.44454 3.55546C6.92882 3.03973 6.22935 2.75 5.5 2.75ZM5.5 7.21875C5.04433 7.2182 4.60747 7.03695 4.28526 6.71474C3.96305 6.39253 3.7818 5.95567 3.78125 5.5C3.78125 4.55194 4.55262 3.78125 5.5 3.78125C6.44738 3.78125 7.21875 4.55194 7.21875 5.5C7.21875 6.44738 6.44738 7.21875 5.5 7.21875Z" fill="url(#paint1_linear_2_49)"/>
<path d="M8.45628 2.91019C8.65866 2.91019 8.82272 2.74613 8.82272 2.54375C8.82272 2.34137 8.65866 2.17731 8.45628 2.17731C8.2539 2.17731 8.08984 2.34137 8.08984 2.54375C8.08984 2.74613 8.2539 2.91019 8.45628 2.91019Z" fill="url(#paint2_linear_2_49)"/>
</g>
<defs>
<linearGradient id="paint0_linear_2_49" x1="1.0065" y1="9.9935" x2="9.9935" y2="1.0065" gradientUnits="userSpaceOnUse">
<stop stop-color="#FFC107"/>
<stop offset="0.507" stop-color="#F44336"/>
<stop offset="0.99" stop-color="#9C27B0"/>
</linearGradient>
<linearGradient id="paint1_linear_2_49" x1="3.55575" y1="7.44425" x2="7.44425" y2="3.55575" gradientUnits="userSpaceOnUse">
<stop stop-color="#FFC107"/>
<stop offset="0.507" stop-color="#F44336"/>
<stop offset="0.99" stop-color="#9C27B0"/>
</linearGradient>
<linearGradient id="paint2_linear_2_49" x1="8.19709" y1="2.80294" x2="8.71547" y2="2.28456" gradientUnits="userSpaceOnUse">
<stop stop-color="#FFC107"/>
<stop offset="0.507" stop-color="#F44336"/>
<stop offset="0.99" stop-color="#9C27B0"/>
</linearGradient>
<clipPath id="clip0_2_49">
<rect width="11" height="11" fill="white"/>
</clipPath>
</defs>
</svg>
