<svg width="11" height="11" viewBox="0 0 11 11" fill="none" xmlns="http://www.w3.org/2000/svg">
<path d="M8.531 0H2.469C1.10541 0 0 1.10541 0 2.469V8.531C0 9.89459 1.10541 11 2.469 11H8.531C9.89459 11 11 9.89459 11 8.531V2.469C11 1.10541 9.89459 0 8.531 0Z" fill="#0B86CA"/>
<path d="M3.04816 4.57222H4.19122V8.26048H3.04816V4.57222ZM3.63112 2.73952C3.76208 2.73952 3.89011 2.77831 3.99905 2.85099C4.10799 2.92367 4.19297 3.02699 4.24326 3.14791C4.29354 3.26883 4.30689 3.40194 4.28162 3.53044C4.25635 3.65894 4.19358 3.77707 4.10125 3.86994C4.00891 3.96281 3.89113 4.02625 3.76278 4.05226C3.63443 4.07827 3.50125 4.06568 3.38004 4.01609C3.25884 3.96649 3.15503 3.88211 3.08173 3.77359C3.00842 3.66506 2.9689 3.53726 2.96815 3.4063C2.96765 3.31892 2.98443 3.2323 3.01752 3.15142C3.05061 3.07055 3.09937 2.99701 3.16098 2.93505C3.22259 2.87308 3.29585 2.8239 3.37653 2.79035C3.45722 2.75679 3.54374 2.73952 3.63112 2.73952ZM4.92277 4.57222H6.02392V5.07516C6.13414 4.88705 6.29338 4.7324 6.48463 4.62772C6.67588 4.52304 6.89196 4.47225 7.10982 4.48077C8.25287 4.48077 8.4853 5.24281 8.4853 6.23727V8.26048H7.34224V6.47731C7.34224 6.05057 7.34224 5.49809 6.74785 5.49809C6.15346 5.49809 6.06202 5.96294 6.06202 6.44302V8.2681H4.91896L4.92277 4.57222Z" fill="white"/>
</svg>
