<svg width="11" height="11" viewBox="0 0 11 11" fill="none" xmlns="http://www.w3.org/2000/svg">
<path d="M8.65402 0H2.34598C1.05033 0 0 1.05033 0 2.34598V8.65402C0 9.94967 1.05033 11 2.34598 11H8.65402C9.94967 11 11 9.94967 11 8.65402V2.34598C11 1.05033 9.94967 0 8.65402 0Z" fill="#0A93E2"/>
<path fill-rule="evenodd" clip-rule="evenodd" d="M8.8459 3.83091C8.60896 3.93594 8.35382 4.00719 8.08658 4.03899C8.35961 3.87518 8.56903 3.61619 8.66826 3.30752C8.41263 3.45879 8.12946 3.56899 7.82843 3.62829C7.58723 3.37115 7.24344 3.21077 6.86303 3.21077C6.13254 3.21077 5.54087 3.80306 5.54087 4.53293C5.54087 4.63646 5.55233 4.73768 5.57501 4.83443C4.4762 4.77909 3.50167 4.25273 2.84969 3.4525C2.73557 3.648 2.67062 3.87518 2.67062 4.1174C2.67062 4.57632 2.90406 4.98122 3.25848 5.21816C3.04177 5.21138 2.83813 5.1517 2.65951 5.05247C2.65951 5.05827 2.65951 5.06358 2.65951 5.06938C2.65951 5.70975 3.11546 6.24423 3.72023 6.36565C3.60954 6.39597 3.49255 6.41236 3.37211 6.41236C3.28696 6.41236 3.20411 6.40411 3.12312 6.3887C3.29175 6.91405 3.78002 7.29631 4.35875 7.3069C3.90612 7.66177 3.33601 7.87268 2.71633 7.87268C2.60934 7.87268 2.50395 7.86691 2.40091 7.85443C2.98594 8.22953 3.68079 8.44858 4.42754 8.44858C6.85972 8.44858 8.19013 6.43344 8.19013 4.68613C8.19013 4.62883 8.18866 4.57198 8.18632 4.51516C8.44478 4.32879 8.66876 4.0958 8.84591 3.8309L8.8459 3.83091Z" fill="white"/>
</svg>
