<svg width="10" height="10" viewBox="0 0 10 10" fill="none" xmlns="http://www.w3.org/2000/svg">
<g clip-path="url(#clip0_2_47)">
<path d="M9.99995 4.76562V5.23438C9.993 5.26576 9.98785 5.29752 9.98452 5.32949C9.96027 5.79404 9.86578 6.25224 9.70425 6.68848C9.31675 7.74043 8.65444 8.57871 7.7146 9.19277C7.11 9.59021 6.42408 9.84722 5.70718 9.94492C5.5564 9.96582 5.40503 9.98125 5.25386 9.99922H4.74605C4.63354 9.98633 4.52104 9.97285 4.40854 9.96016C3.81636 9.89499 3.24154 9.71985 2.71362 9.44375C1.84123 8.98932 1.15809 8.33555 0.664207 7.48242C0.346324 6.93653 0.139556 6.33316 0.0558081 5.70703C0.0349096 5.55078 0.0183105 5.39199 -0.000244141 5.23438V4.76562C0.00662334 4.73429 0.011775 4.7026 0.0151863 4.6707C0.0397682 4.20621 0.134184 3.74808 0.295261 3.31172C0.682957 2.25977 1.34507 1.42168 2.28491 0.807422C2.89241 0.408167 3.58172 0.150272 4.3021 0.052734C4.44956 0.0332028 4.5978 0.0173828 4.74585 0H5.25366C5.36616 0.0130859 5.47866 0.0263672 5.59116 0.0390625C6.18334 0.104387 6.75807 0.279933 7.28569 0.556641C8.15444 1.00957 8.83862 1.66055 9.33022 2.50977C9.651 3.05772 9.85954 3.66402 9.9437 4.29336C9.9648 4.45039 9.9814 4.6082 9.99995 4.76562ZM0.891356 6.1834H3.14624C3.08149 5.39547 3.08149 4.60355 3.14624 3.81562H0.889403C0.654442 4.56484 0.670848 5.51133 0.891356 6.1834ZM6.85425 3.81465C6.91886 4.60354 6.91932 5.39638 6.85561 6.18535H9.11597C9.33794 5.41071 9.33794 4.58929 9.11597 3.81465H6.85425ZM3.86597 6.18418H6.13413C6.20519 5.39638 6.20487 4.60376 6.13315 3.81602H3.86597C3.79507 4.60381 3.79507 5.39638 3.86597 6.18418ZM6.04741 3.08945C5.94136 2.45117 5.80932 1.83223 5.51323 1.26367C5.42547 1.10096 5.31745 0.950016 5.19175 0.814453C5.06968 0.679492 4.93472 0.681836 4.80854 0.813086C4.70017 0.924891 4.60585 1.04951 4.52768 1.18418C4.30601 1.5709 4.18101 1.99512 4.08159 2.42676C4.03179 2.64355 3.99312 2.86269 3.94761 3.08906L6.04741 3.08945ZM3.95444 6.91269C3.96616 6.98691 3.97397 7.04785 3.9855 7.10801C4.08042 7.63359 4.20679 8.1502 4.43276 8.63711C4.52612 8.83828 4.63257 9.03203 4.79995 9.18398C4.94311 9.31367 5.06636 9.3207 5.20034 9.17891C5.30612 9.06919 5.39796 8.94685 5.47378 8.81465C5.72104 8.37402 5.85327 7.89141 5.95679 7.40059C5.99038 7.24043 6.01772 7.07871 6.04897 6.9123L3.95444 6.91269ZM1.16499 3.08867C1.20405 3.0916 1.21909 3.09375 1.23511 3.09375C1.87261 3.09375 2.50991 3.09375 3.14741 3.0957C3.21733 3.0957 3.23393 3.0666 3.24292 3.00586C3.32104 2.48144 3.43354 1.96484 3.61655 1.46621C3.68882 1.26953 3.7769 1.07891 3.86479 0.86875C2.65014 1.22988 1.76186 1.96562 1.16499 3.08789V3.08867ZM6.12241 0.864648C6.17339 0.971679 6.21421 1.05273 6.25093 1.13574C6.5144 1.73144 6.65796 2.36016 6.75561 3.00059C6.76694 3.07383 6.79253 3.09629 6.86655 3.0959C7.48765 3.09297 8.10894 3.09434 8.73003 3.09375C8.75991 3.09375 8.78999 3.08945 8.83374 3.08613C8.23745 1.96563 7.34976 1.23066 6.12241 0.863867V0.864648ZM1.16948 6.91289C1.43903 7.45309 1.82014 7.92993 2.28764 8.31191C2.75123 8.69575 3.2924 8.97473 3.87397 9.12969C3.82515 9.02656 3.78432 8.94531 3.74761 8.8623C3.48511 8.26973 3.34292 7.64414 3.24507 7.00684C3.23315 6.92871 3.20796 6.90527 3.12944 6.90566C2.51167 6.90859 1.8937 6.90723 1.27573 6.90762C1.24468 6.90703 1.21362 6.90996 1.16948 6.91211V6.91289ZM8.83511 6.91289C8.79605 6.91035 8.78042 6.9082 8.7644 6.9082C8.1269 6.9082 7.4894 6.9082 6.8521 6.90625C6.78179 6.90625 6.76597 6.93613 6.75698 6.99648C6.67886 7.5209 6.56616 8.0375 6.38315 8.53613C6.31108 8.73262 6.2228 8.92324 6.13491 9.1332C7.34976 8.77012 8.23823 8.03418 8.83511 6.91191V6.91289Z" fill="#494949"/>
</g>
<defs>
<clipPath id="clip0_2_47">
<rect width="10" height="10" fill="white"/>
</clipPath>
</defs>
</svg>
